<svg xmlns="http://www.w3.org/2000/svg" xmlns:xlink="http://www.w3.org/1999/xlink" xmlns:lucid="lucid" width="2100.29" height="1424"><g transform="translate(1300 200)" lucid:page-tab-id="0_0"><path d="M-1806.87-1258.83h3677.74v2581.66h-3677.74z" fill="#fff"/><path d="M-939.5 368H-372c6.63 0 12 5.37 12 12v252c0 6.63 5.37 12 12 12h8.1" stroke="#333" fill="none"/><path d="M-939.5 378v-20M-959.5 368h20" stroke="#333" fill="#fff"/><path d="M-320.72 654l-20-10 20-10" stroke="#333" fill="#fff" fill-opacity="0"/><path d="M-320.72 644h-20" stroke="#333" fill="#fff"/><path d="M-1280 133c0-2.76 2.24-5 5-5h310c2.76 0 5 2.24 5 5v342c0 2.76-2.24 5-5 5h-310c-2.76 0-5-2.24-5-5z" fill="#fff"/><path d="M-1280 88h320v40h-320z" fill="#ccc"/><path d="M-1280 93c0-2.76 2.24-5 5-5h310c2.76 0 5 2.24 5 5v382c0 2.76-2.24 5-5 5h-310c-2.76 0-5-2.24-5-5zM-1280 128h320M-1120 128v352" stroke="#333" fill="none"/><use xlink:href="#a" transform="matrix(1,0,0,1,-1270,87.99999999999994) translate(0 23.6)"/><use xlink:href="#b" transform="matrix(1,0,0,1,-1275,130.49999999999994) translate(0 17.1)"/><use xlink:href="#c" transform="matrix(1,0,0,1,-1115,130.49999999999994) translate(0 17.1)"/><use xlink:href="#d" transform="matrix(1,0,0,1,-1115,130.49999999999994) translate(34 17.1)"/><use xlink:href="#e" transform="matrix(1,0,0,1,-1275,162.49999999999994) translate(0 17.1)"/><use xlink:href="#f" transform="matrix(1,0,0,1,-1115,162.49999999999994) translate(0 17.1)"/><use xlink:href="#g" transform="matrix(1,0,0,1,-1275,194.49999999999994) translate(0 17.1)"/><use xlink:href="#h" transform="matrix(1,0,0,1,-1115,194.49999999999994) translate(0 17.1)"/><use xlink:href="#i" transform="matrix(1,0,0,1,-1275,226.49999999999994) translate(0 17.1)"/><use xlink:href="#j" transform="matrix(1,0,0,1,-1115,226.49999999999994) translate(0 17.1)"/><use xlink:href="#k" transform="matrix(1,0,0,1,-1275,258.49999999999994) translate(0 17.1)"/><use xlink:href="#l" transform="matrix(1,0,0,1,-1115,258.49999999999994) translate(0 17.1)"/><use xlink:href="#m" transform="matrix(1,0,0,1,-1275,290.49999999999994) translate(0 17.1)"/><use xlink:href="#n" transform="matrix(1,0,0,1,-1115,290.49999999999994) translate(0 17.1)"/><use xlink:href="#o" transform="matrix(1,0,0,1,-1275,322.49999999999994) translate(0 17.1)"/><use xlink:href="#n" transform="matrix(1,0,0,1,-1115,322.49999999999994) translate(0 17.1)"/><use xlink:href="#p" transform="matrix(1,0,0,1,-1275,354.49999999999994) translate(0 17.1)"/><use xlink:href="#q" transform="matrix(1,0,0,1,-1115,354.49999999999994) translate(0 17.1)"/><use xlink:href="#r" transform="matrix(1,0,0,1,-1275,386.49999999999994) translate(0 17.1)"/><use xlink:href="#q" transform="matrix(1,0,0,1,-1115,386.49999999999994) translate(0 17.1)"/><use xlink:href="#s" transform="matrix(1,0,0,1,-1275,418.49999999999994) translate(0 17.1)"/><use xlink:href="#q" transform="matrix(1,0,0,1,-1115,418.49999999999994) translate(0 17.1)"/><use xlink:href="#t" transform="matrix(1,0,0,1,-1275,450.49999999999994) translate(0 17.1)"/><use xlink:href="#q" transform="matrix(1,0,0,1,-1115,450.49999999999994) translate(0 17.1)"/><path d="M-320 633c0-2.76 2.24-5 5-5h270c2.76 0 5 2.24 5 5v182c0 2.76-2.24 5-5 5h-270c-2.76 0-5-2.24-5-5z" fill="#fff"/><path d="M-320 588h280v40h-280z" fill="#ccc"/><path d="M-320 593c0-2.76 2.24-5 5-5h270c2.76 0 5 2.24 5 5v222c0 2.76-2.24 5-5 5h-270c-2.76 0-5-2.24-5-5zM-320 628h280M-180 628v192" stroke="#333" fill="none"/><use xlink:href="#u" transform="matrix(1,0,0,1,-310,588) translate(0 23.6)"/><use xlink:href="#b" transform="matrix(1,0,0,1,-315,630.5) translate(0 17.1)"/><use xlink:href="#c" transform="matrix(1,0,0,1,-175,630.5) translate(0 17.1)"/><use xlink:href="#d" transform="matrix(1,0,0,1,-175,630.5) translate(34 17.1)"/><use xlink:href="#v" transform="matrix(1,0,0,1,-315,662.5) translate(0 17.1)"/><use xlink:href="#q" transform="matrix(1,0,0,1,-175,662.5) translate(0 17.1)"/><use xlink:href="#w" transform="matrix(1,0,0,1,-315,694.5) translate(0 17.1)"/><use xlink:href="#x" transform="matrix(1,0,0,1,-175,694.5) translate(0 17.1)"/><use xlink:href="#y" transform="matrix(1,0,0,1,-315,726.5) translate(0 17.1)"/><use xlink:href="#z" transform="matrix(1,0,0,1,-175,726.5) translate(0 17.1)"/><use xlink:href="#A" transform="matrix(1,0,0,1,-315,758.5) translate(0 17.1)"/><use xlink:href="#q" transform="matrix(1,0,0,1,-175,758.5) translate(0 17.1)"/><use xlink:href="#B" transform="matrix(1,0,0,1,-315,790.5) translate(0 17.1)"/><use xlink:href="#f" transform="matrix(1,0,0,1,-175,790.5) translate(0 17.1)"/><path d="M-360 953c0-2.76 2.24-5 5-5h270c2.76 0 5 2.24 5 5v246c0 2.76-2.24 5-5 5h-270c-2.76 0-5-2.24-5-5z" fill="#fff"/><path d="M-360 908h280v40h-280z" fill="#ccc"/><path d="M-360 913c0-2.76 2.24-5 5-5h270c2.76 0 5 2.24 5 5v286c0 2.76-2.24 5-5 5h-270c-2.76 0-5-2.24-5-5zM-360 948h280M-221.72 948v256" stroke="#333" fill="none"/><use xlink:href="#C" transform="matrix(1,0,0,1,-350,908) translate(0 23.6)"/><use xlink:href="#D" transform="matrix(1,0,0,1,-355,950.5) translate(0 17.1)"/><use xlink:href="#E" transform="matrix(1,0,0,1,-216.72016542413854,950.5) translate(0 17.1)"/><use xlink:href="#F" transform="matrix(1,0,0,1,-216.72016542413854,950.5) translate(34 17.1)"/><use xlink:href="#G" transform="matrix(1,0,0,1,-355,982.5) translate(0 17.1)"/><use xlink:href="#z" transform="matrix(1,0,0,1,-216.72016542413854,982.5) translate(0 17.1)"/><use xlink:href="#H" transform="matrix(1,0,0,1,-355,1014.5) translate(0 17.1)"/><use xlink:href="#z" transform="matrix(1,0,0,1,-216.72016542413854,1014.5) translate(0 17.1)"/><use xlink:href="#I" transform="matrix(1,0,0,1,-355,1046.5) translate(0 17.1)"/><use xlink:href="#z" transform="matrix(1,0,0,1,-216.72016542413854,1046.5) translate(0 17.1)"/><use xlink:href="#J" transform="matrix(1,0,0,1,-355,1078.5) translate(0 17.1)"/><use xlink:href="#z" transform="matrix(1,0,0,1,-216.72016542413854,1078.5) translate(0 17.1)"/><use xlink:href="#K" transform="matrix(1,0,0,1,-355,1110.5) translate(0 17.1)"/><use xlink:href="#z" transform="matrix(1,0,0,1,-216.72016542413854,1110.5) translate(0 17.1)"/><use xlink:href="#L" transform="matrix(1,0,0,1,-355,1142.5) translate(0 17.1)"/><use xlink:href="#z" transform="matrix(1,0,0,1,-216.72016542413854,1142.5) translate(0 17.1)"/><use xlink:href="#M" transform="matrix(1,0,0,1,-355,1174.5) translate(0 17.1)"/><use xlink:href="#z" transform="matrix(1,0,0,1,-216.72016542413854,1174.5) translate(0 17.1)"/><path d="M-580-172c0-4.42 3.58-8 8-8h836.75c4.42 0 8 3.58 8 8v25.16c0 4.4-3.58 8-8 8H-572c-4.42 0-8-3.6-8-8z" stroke="#000" stroke-opacity="0" stroke-width="2" fill="#fff" fill-opacity="0"/><use xlink:href="#N" transform="matrix(1,0,0,1,-576,-176) translate(188.42604938271606 25.782777777777778)"/><use xlink:href="#O" transform="matrix(1,0,0,1,-576,-176) translate(232.0569135802469 25.782777777777778)"/><use xlink:href="#P" transform="matrix(1,0,0,1,-576,-176) translate(248.00876543209876 25.782777777777778)"/><use xlink:href="#Q" transform="matrix(1,0,0,1,-576,-176) translate(393.25074074074075 25.782777777777778)"/><use xlink:href="#R" transform="matrix(1,0,0,1,-576,-176) translate(504.62234567901237 25.782777777777778)"/><use xlink:href="#S" transform="matrix(1,0,0,1,-576,-176) translate(581.7593827160493 25.782777777777778)"/><path d="M-404.5-140.2h505.85M-404.5-140.2h-1M101.32-140.2h1.03" stroke="#a9afb8" stroke-width="2" fill="none"/><path d="M-580-130.84c0-4.42 3.58-8 8-8h837.7c4.43 0 8 3.58 8 8v2.84c0 4.42-3.57 8-8 8H-572c-4.42 0-8-3.58-8-8z" stroke="#000" stroke-opacity="0" stroke-width="2" fill="#fff" fill-opacity="0"/><use xlink:href="#T" transform="matrix(1,0,0,1,-575.9999999999995,-134.8447760431012) translate(295.27172839506176 14.917037037037037)"/><use xlink:href="#U" transform="matrix(1,0,0,1,-575.9999999999995,-134.8447760431012) translate(367.4192592592593 14.917037037037037)"/><use xlink:href="#V" transform="matrix(1,0,0,1,-575.9999999999995,-134.8447760431012) translate(426.8198765432099 14.917037037037037)"/><use xlink:href="#W" transform="matrix(1,0,0,1,-575.9999999999995,-134.8447760431012) translate(439.2693621399177 14.917037037037037)"/><use xlink:href="#X" transform="matrix(1,0,0,1,-575.9999999999995,-134.8447760431012) translate(497.8626748971193 14.917037037037037)"/><use xlink:href="#Y" transform="matrix(1,0,0,1,-575.9999999999995,-134.8447760431012) translate(523.3565020576132 14.917037037037037)"/><path d="M-220 887.5v-8c0-6.63-5.37-12-12-12h-116.5c-6.63 0-12-5.37-12-12V688c0-6.63 5.37-12 12-12h8" stroke="#333" fill="none"/><path d="M-210 887.5h-20M-220 907.5v-20M-340.5 666v20M-320.5 676h-20" stroke="#333" fill="#fff"/><path d="M-740 633c0-2.76 2.24-5 5-5h310c2.76 0 5 2.24 5 5v214c0 2.76-2.24 5-5 5h-310c-2.76 0-5-2.24-5-5z" fill="#fff"/><path d="M-740 588h320v40h-320z" fill="#ccc"/><path d="M-740 593c0-2.76 2.24-5 5-5h310c2.76 0 5 2.24 5 5v254c0 2.76-2.24 5-5 5h-310c-2.76 0-5-2.24-5-5zM-740 628h320M-580 628v224" stroke="#333" fill="none"/><use xlink:href="#Z" transform="matrix(1,0,0,1,-730,588) translate(0 23.6)"/><use xlink:href="#b" transform="matrix(1,0,0,1,-735,630.5) translate(0 17.1)"/><use xlink:href="#c" transform="matrix(1,0,0,1,-575,630.5) translate(0 17.1)"/><use xlink:href="#d" transform="matrix(1,0,0,1,-575,630.5) translate(34 17.1)"/><use xlink:href="#aa" transform="matrix(1,0,0,1,-735,662.5) translate(0 17.1)"/><use xlink:href="#f" transform="matrix(1,0,0,1,-575,662.5) translate(0 17.1)"/><use xlink:href="#g" transform="matrix(1,0,0,1,-735,694.5) translate(0 17.1)"/><use xlink:href="#h" transform="matrix(1,0,0,1,-575,694.5) translate(0 17.1)"/><use xlink:href="#ab" transform="matrix(1,0,0,1,-735,726.5) translate(0 17.1)"/><use xlink:href="#f" transform="matrix(1,0,0,1,-575,726.5) translate(0 17.1)"/><use xlink:href="#k" transform="matrix(1,0,0,1,-735,758.5) translate(0 17.1)"/><use xlink:href="#l" transform="matrix(1,0,0,1,-575,758.5) translate(0 17.1)"/><use xlink:href="#m" transform="matrix(1,0,0,1,-735,790.5) translate(0 17.1)"/><use xlink:href="#n" transform="matrix(1,0,0,1,-575,790.5) translate(0 17.1)"/><use xlink:href="#o" transform="matrix(1,0,0,1,-735,822.5) translate(0 17.1)"/><use xlink:href="#n" transform="matrix(1,0,0,1,-575,822.5) translate(0 17.1)"/><path d="M-759.9 644H-838c-6.63 0-12-5.37-12-12V412c0-6.63-5.37-12-12-12h-77.5" stroke="#333" fill="none"/><path d="M-740.72 654l-20-10 20-10" stroke="#333" fill="#fff" fill-opacity="0"/><path d="M-740.72 644h-20M-939.5 410v-20M-959.5 400h20" stroke="#333" fill="#fff"/><path d="M-320-35c0-2.76 2.24-5 5-5H-5c2.76 0 5 2.24 5 5v406c0 2.76-2.24 5-5 5h-310c-2.76 0-5-2.24-5-5z" fill="#fff"/><path d="M-320-80H0v40h-320z" fill="#ccc"/><path d="M-320-75c0-2.76 2.24-5 5-5H-5c2.76 0 5 2.24 5 5v446c0 2.76-2.24 5-5 5h-310c-2.76 0-5-2.24-5-5zM-320-40H0M-160-40v416" stroke="#333" fill="none"/><use xlink:href="#ac" transform="matrix(1,0,0,1,-310,-80) translate(0 23.6)"/><use xlink:href="#b" transform="matrix(1,0,0,1,-315,-37.5) translate(0 17.1)"/><use xlink:href="#c" transform="matrix(1,0,0,1,-155,-37.5) translate(0 17.1)"/><use xlink:href="#d" transform="matrix(1,0,0,1,-155,-37.5) translate(34 17.1)"/><use xlink:href="#aa" transform="matrix(1,0,0,1,-315,-5.5) translate(0 17.1)"/><use xlink:href="#f" transform="matrix(1,0,0,1,-155,-5.5) translate(0 17.1)"/><use xlink:href="#g" transform="matrix(1,0,0,1,-315,26.5) translate(0 17.1)"/><use xlink:href="#h" transform="matrix(1,0,0,1,-155,26.5) translate(0 17.1)"/><use xlink:href="#ad" transform="matrix(1,0,0,1,-315,58.5) translate(0 17.1)"/><use xlink:href="#f" transform="matrix(1,0,0,1,-155,58.5) translate(0 17.1)"/><use xlink:href="#ae" transform="matrix(1,0,0,1,-315,90.5) translate(0 17.1)"/><use xlink:href="#l" transform="matrix(1,0,0,1,-155,90.5) translate(0 17.1)"/><use xlink:href="#af" transform="matrix(1,0,0,1,-315,122.5) translate(0 17.1)"/><use xlink:href="#ag" transform="matrix(1,0,0,1,-155,122.5) translate(0 17.1)"/><use xlink:href="#ah" transform="matrix(1,0,0,1,-315,154.5) translate(0 17.1)"/><use xlink:href="#ai" transform="matrix(1,0,0,1,-155,154.5) translate(0 17.1)"/><use xlink:href="#aj" transform="matrix(1,0,0,1,-315,186.5) translate(0 17.1)"/><use xlink:href="#ak" transform="matrix(1,0,0,1,-155,186.5) translate(0 17.1)"/><use xlink:href="#al" transform="matrix(1,0,0,1,-315,218.5) translate(0 17.1)"/><use xlink:href="#ak" transform="matrix(1,0,0,1,-155,218.5) translate(0 17.1)"/><use xlink:href="#am" transform="matrix(1,0,0,1,-315,250.5) translate(0 17.1)"/><use xlink:href="#ai" transform="matrix(1,0,0,1,-155,250.5) translate(0 17.1)"/><use xlink:href="#an" transform="matrix(1,0,0,1,-315,282.5) translate(0 17.1)"/><use xlink:href="#ao" transform="matrix(1,0,0,1,-155,282.5) translate(0 17.1)"/><use xlink:href="#m" transform="matrix(1,0,0,1,-315,314.5) translate(0 17.1)"/><use xlink:href="#n" transform="matrix(1,0,0,1,-155,314.5) translate(0 17.1)"/><use xlink:href="#o" transform="matrix(1,0,0,1,-315,346.5) translate(0 17.1)"/><use xlink:href="#n" transform="matrix(1,0,0,1,-155,346.5) translate(0 17.1)"/><path d="M-339.9-24H-628c-6.63 0-12 5.37-12 12v240c0 6.63-5.37 12-12 12h-287.5" stroke="#333" fill="none"/><path d="M-320.72-14l-20-10 20-10" stroke="#333" fill="#fff" fill-opacity="0"/><path d="M-320.72-24h-20M-939.5 250v-20M-959.5 240h20" stroke="#333" fill="#fff"/><path d="M100 633c0-2.76 2.24-5 5-5h270c2.76 0 5 2.24 5 5v150c0 2.76-2.24 5-5 5H105c-2.76 0-5-2.24-5-5z" fill="#fff"/><path d="M100 588h280v40H100z" fill="#ccc"/><path d="M100 593c0-2.76 2.24-5 5-5h270c2.76 0 5 2.24 5 5v190c0 2.76-2.24 5-5 5H105c-2.76 0-5-2.24-5-5zM100 628h280M240 628v160" stroke="#333" fill="none"/><use xlink:href="#ap" transform="matrix(1,0,0,1,110,587.9999999999999) translate(0 23.6)"/><use xlink:href="#b" transform="matrix(1,0,0,1,105,630.4999999999999) translate(0 17.1)"/><use xlink:href="#c" transform="matrix(1,0,0,1,245,630.4999999999999) translate(0 17.1)"/><use xlink:href="#d" transform="matrix(1,0,0,1,245,630.4999999999999) translate(34 17.1)"/><use xlink:href="#aq" transform="matrix(1,0,0,1,105,662.4999999999999) translate(0 17.1)"/><use xlink:href="#ar" transform="matrix(1,0,0,1,245,662.4999999999999) translate(0 17.1)"/><use xlink:href="#as" transform="matrix(1,0,0,1,105,694.4999999999999) translate(0 17.1)"/><use xlink:href="#ar" transform="matrix(1,0,0,1,245,694.4999999999999) translate(0 17.1)"/><use xlink:href="#at" transform="matrix(1,0,0,1,105,726.4999999999999) translate(0 17.1)"/><use xlink:href="#ar" transform="matrix(1,0,0,1,245,726.4999999999999) translate(0 17.1)"/><use xlink:href="#au" transform="matrix(1,0,0,1,105,758.4999999999999) translate(0 17.1)"/><use xlink:href="#ar" transform="matrix(1,0,0,1,245,758.4999999999999) translate(0 17.1)"/><path d="M-1160 773c0-2.76 2.24-5 5-5h270c2.76 0 5 2.24 5 5v246c0 2.76-2.24 5-5 5h-270c-2.76 0-5-2.24-5-5z" fill="#fff"/><path d="M-1160 728h280v40h-280z" fill="#ccc"/><path d="M-1160 733c0-2.76 2.24-5 5-5h270c2.76 0 5 2.24 5 5v286c0 2.76-2.24 5-5 5h-270c-2.76 0-5-2.24-5-5zM-1160 768h280M-1021.72 768v256" stroke="#333" fill="none"/><use xlink:href="#av" transform="matrix(1,0,0,1,-1150,728) translate(0 23.6)"/><use xlink:href="#D" transform="matrix(1,0,0,1,-1155,770.5) translate(0 17.1)"/><use xlink:href="#E" transform="matrix(1,0,0,1,-1016.7201654241385,770.5) translate(0 17.1)"/><use xlink:href="#F" transform="matrix(1,0,0,1,-1016.7201654241385,770.5) translate(34 17.1)"/><use xlink:href="#aw" transform="matrix(1,0,0,1,-1155,802.5) translate(0 17.1)"/><use xlink:href="#ax" transform="matrix(1,0,0,1,-1016.7201654241385,802.5) translate(0 17.1)"/><use xlink:href="#ay" transform="matrix(1,0,0,1,-1155,834.5) translate(0 17.1)"/><use xlink:href="#ax" transform="matrix(1,0,0,1,-1016.7201654241385,834.5) translate(0 17.1)"/><use xlink:href="#az" transform="matrix(1,0,0,1,-1155,866.5) translate(0 17.1)"/><use xlink:href="#ax" transform="matrix(1,0,0,1,-1016.7201654241385,866.5) translate(0 17.1)"/><use xlink:href="#aA" transform="matrix(1,0,0,1,-1155,898.5) translate(0 17.1)"/><use xlink:href="#ax" transform="matrix(1,0,0,1,-1016.7201654241385,898.5) translate(0 17.1)"/><use xlink:href="#aB" transform="matrix(1,0,0,1,-1155,930.5) translate(0 17.1)"/><use xlink:href="#ar" transform="matrix(1,0,0,1,-1016.7201654241385,930.5) translate(0 17.1)"/><use xlink:href="#aC" transform="matrix(1,0,0,1,-1155,962.5) translate(0 17.1)"/><use xlink:href="#ar" transform="matrix(1,0,0,1,-1016.7201654241385,962.5) translate(0 17.1)"/><use xlink:href="#aD" transform="matrix(1,0,0,1,-1155,994.5) translate(0 17.1)"/><use xlink:href="#ar" transform="matrix(1,0,0,1,-1016.7201654241385,994.5) translate(0 17.1)"/><path d="M-1020 707.5v-8c0-6.63 5.37-12 12-12h76.5c6.63 0 12-5.37 12-12V476c0-6.63-5.37-12-12-12h-8" stroke="#333" fill="none"/><path d="M-1010 707.5h-20M-1020 727.5v-20M-939.5 474v-20M-959.5 464h20" stroke="#333" fill="#fff"/><path d="M380 56c0-4.42 3.58-8 8-8h384.3c4.4 0 8 3.58 8 8v48c0 4.42-3.6 8-8 8H388c-4.42 0-8-3.58-8-8z" fill="#fff"/><path d="M380 8h400.3v40H380z" fill="#ccc"/><path d="M380 16c0-4.42 3.58-8 8-8h384.3c4.4 0 8 3.58 8 8v88c0 4.42-3.6 8-8 8H388c-4.42 0-8-3.58-8-8zM380 48h400.3M468 48v64M610.14 48v64" stroke="#333" fill="none"/><use xlink:href="#aE" transform="matrix(1,0,0,1,390,8) translate(162.525 23.6)"/><use xlink:href="#aF" transform="matrix(1,0,0,1,385,50.5) translate(27 17.1)"/><use xlink:href="#aG" transform="matrix(1,0,0,1,472.99875801449616,50.5) translate(57.525 17.1)"/><use xlink:href="#aH" transform="matrix(1,0,0,1,615.1426709225018,50.5) translate(66.05 17.1)"/><use xlink:href="#aE" transform="matrix(1,0,0,1,472.99875801449616,82.5) translate(38.525 17.1)"/><use xlink:href="#aI" transform="matrix(1,0,0,1,615.1426709225018,82.5) translate(30.624999999999993 17.1)"/><path d="M360.1 64H194c-2.2 0-4 1.8-4 4s-1.8 4-4 4H20.5" stroke="#333" fill="none"/><path d="M379.28 74l-20-10 20-10" stroke="#333" fill="#fff" fill-opacity="0"/><path d="M379.28 64h-20M20.5 82V62M.5 72h20" stroke="#333" fill="#fff"/><path d="M360.3 162c0-4.42 3.57-8 8-8h404c4.4 0 8 3.58 8 8v376c0 4.42-3.6 8-8 8h-404c-4.43 0-8-3.58-8-8z" fill="#fff"/><path d="M360.3 162c0-4.42 3.57-8 8-8h404c4.4 0 8 3.58 8 8v376c0 4.42-3.6 8-8 8h-404c-4.43 0-8-3.58-8-8zM360.3 194h420M450.38 194v352M600.3 194v352" stroke="#333" fill="none"/><use xlink:href="#aJ" transform="matrix(1,0,0,1,370.2853418450036,154) translate(177.525 23.6)"/><use xlink:href="#aK" transform="matrix(1,0,0,1,365.2853418450036,196.5) translate(28.5 17.1)"/><use xlink:href="#aL" transform="matrix(1,0,0,1,455.3757171755392,196.5) translate(61.025 17.1)"/><use xlink:href="#aM" transform="matrix(1,0,0,1,605.2853418450036,196.5) translate(70.55 17.1)"/><use xlink:href="#aN" transform="matrix(1,0,0,1,455.3757171755392,228.5) translate(58.55 17.1)"/><use xlink:href="#f" transform="matrix(1,0,0,1,605.2853418450036,228.5) translate(30.124999999999993 17.1)"/><use xlink:href="#aO" transform="matrix(1,0,0,1,365.2853418450036,260.5) translate(25 17.1)"/><use xlink:href="#g" transform="matrix(1,0,0,1,455.3757171755392,260.5) translate(0 17.1)"/><use xlink:href="#h" transform="matrix(1,0,0,1,605.2853418450036,260.5) translate(0 17.1)"/><use xlink:href="#ad" transform="matrix(1,0,0,1,455.3757171755392,292.5) translate(0 17.1)"/><use xlink:href="#f" transform="matrix(1,0,0,1,605.2853418450036,292.5) translate(0 17.1)"/><use xlink:href="#aO" transform="matrix(1,0,0,1,365.2853418450036,324.5) translate(25 17.1)"/><use xlink:href="#aP" transform="matrix(1,0,0,1,455.3757171755392,324.5) translate(0 17.1)"/><use xlink:href="#ar" transform="matrix(1,0,0,1,605.2853418450036,324.5) translate(0 17.1)"/><use xlink:href="#aO" transform="matrix(1,0,0,1,365.2853418450036,356.5) translate(25 17.1)"/><use xlink:href="#B" transform="matrix(1,0,0,1,455.3757171755392,356.5) translate(0 17.1)"/><g><use xlink:href="#ar" transform="matrix(1,0,0,1,605.2853418450036,356.5) translate(0 17.1)"/></g><g><use xlink:href="#aO" transform="matrix(1,0,0,1,365.2853418450036,388.5) translate(25 17.1)"/></g><g><use xlink:href="#B" transform="matrix(1,0,0,1,455.3757171755392,388.5) translate(0 17.1)"/></g><g><use xlink:href="#ar" transform="matrix(1,0,0,1,605.2853418450036,388.5) translate(0 17.1)"/></g><g><use xlink:href="#aO" transform="matrix(1,0,0,1,365.2853418450036,420.5) translate(25 17.1)"/></g><g><use xlink:href="#B" transform="matrix(1,0,0,1,455.3757171755392,420.5) translate(0 17.1)"/></g><g><use xlink:href="#ar" transform="matrix(1,0,0,1,605.2853418450036,420.5) translate(0 17.1)"/></g><g><use xlink:href="#aO" transform="matrix(1,0,0,1,365.2853418450036,452.5) translate(25 17.1)"/></g><g><use xlink:href="#B" transform="matrix(1,0,0,1,455.3757171755392,452.5) translate(0 17.1)"/></g><g><use xlink:href="#ar" transform="matrix(1,0,0,1,605.2853418450036,452.5) translate(0 17.1)"/></g><g><use xlink:href="#aQ" transform="matrix(1,0,0,1,365.2853418450036,484.5) translate(25 17.1)"/></g><g><use xlink:href="#aR" transform="matrix(1,0,0,1,455.3757171755392,484.5) translate(50.575 17.1)"/></g><g><use xlink:href="#aS" transform="matrix(1,0,0,1,605.2853418450036,484.5) translate(65.525 17.1)"/></g><g><use xlink:href="#aO" transform="matrix(1,0,0,1,365.2853418450036,516.5) translate(25 17.1)"/></g><g><use xlink:href="#B" transform="matrix(1,0,0,1,455.3757171755392,516.5) translate(0 17.1)"/></g><g><use xlink:href="#ar" transform="matrix(1,0,0,1,605.2853418450036,516.5) translate(0 17.1)"/></g><defs><path fill="#333" d="M-8 0l5-24 140-142H31l5-24h145l-5 24L36-24h119l-5 24H-8" id="aT"/><path fill="#333" d="M67 3c-93-2-31-127-26-193h32L48-50c-3 39 53 32 70 12 30-34 30-101 43-152h32L157 0h-30c1-10 6-24 4-33-14 20-29 37-64 36" id="aU"/><path fill="#333" d="M6 0l50-261h32L37 0H6" id="aV"/><path fill="#333" d="M50-231l6-30h32l-6 30H50zM6 0l37-190h31L37 0H6" id="aW"/><path fill="#333" d="M111-194c62-3 86 47 72 106H45c-7 38 6 69 45 68 27-1 43-14 53-32l24 11C152-15 129 4 87 4 38 3 12-23 12-71c0-70 32-119 99-123zm44 81c14-66-71-72-95-28-4 8-8 17-11 28h106" id="aX"/><path fill="#333" d="M76-167L44 0H12l33-167H18l4-23h27c3-47 25-81 82-69l-4 24c-35-8-44 15-46 45h37l-5 23H76" id="aY"/><path fill="#333" d="M66-151c12-25 30-51 66-40l-6 26C45-176 58-65 38 0H6l36-190h30" id="aZ"/><g id="a"><use transform="matrix(0.05,0,0,0.05,0,0)" xlink:href="#aT"/><use transform="matrix(0.05,0,0,0.05,9,0)" xlink:href="#aU"/><use transform="matrix(0.05,0,0,0.05,19,0)" xlink:href="#aV"/><use transform="matrix(0.05,0,0,0.05,22.95,0)" xlink:href="#aW"/><use transform="matrix(0.05,0,0,0.05,26.899999999999995,0)" xlink:href="#aX"/><use transform="matrix(0.05,0,0,0.05,36.9,0)" xlink:href="#aY"/><use transform="matrix(0.05,0,0,0.05,41.9,0)" xlink:href="#aX"/><use transform="matrix(0.05,0,0,0.05,51.900000000000006,0)" xlink:href="#aZ"/><use transform="matrix(0.05,0,0,0.05,57.85,0)" xlink:href="#aX"/><use transform="matrix(0.05,0,0,0.05,67.85,0)" xlink:href="#aZ"/></g><path fill="#333" d="M14 0l48-248h34L48 0H14" id="ba"/><path fill="#333" d="M248-139C247-14 144 9 11 0l48-248c105-6 190 8 189 109zm-34 0c1-70-52-87-126-82L50-27c98 7 163-21 164-112" id="bb"/><g id="b"><use transform="matrix(0.05,0,0,0.05,0,0)" xlink:href="#ba"/><use transform="matrix(0.05,0,0,0.05,5,0)" xlink:href="#bb"/></g><path fill="#333" d="M238-179c0 84-86 86-175 82L45 0H11l48-248c82 0 179-12 179 69zm-34 1c0-53-64-42-116-43l-19 98c63 0 135 9 135-55" id="bc"/><path fill="#333" d="M180 0L97-118 63-96 45 0H11l48-248h34L69-126c44-43 94-81 141-122h43L121-137 219 0h-39" id="bd"/><path fill="#333" d="M58-38C53-5 46 26 28 46H7C19 32 27 18 32 0H17l7-38h34" id="be"/><g id="c"><use transform="matrix(0.05,0,0,0.05,0,0)" xlink:href="#bc"/><use transform="matrix(0.05,0,0,0.05,12,0)" xlink:href="#bd"/><use transform="matrix(0.05,0,0,0.05,24,0)" xlink:href="#be"/></g><path fill="#333" d="M173 0L80-213 41 0H11l48-248h37l94 214 40-214h30L212 0h-39" id="bf"/><path fill="#333" d="M151-220L108 0H75l42-220H32l6-28h203l-5 28h-85" id="bg"/><g id="d"><use transform="matrix(0.05,0,0,0.05,0,0)" xlink:href="#ba"/><use transform="matrix(0.05,0,0,0.05,5,0)" xlink:href="#bf"/><use transform="matrix(0.05,0,0,0.05,17.950000000000003,0)" xlink:href="#bg"/></g><path fill="#333" d="M51-54c-9 22 5 41 31 30L79-1C43 14 10-4 19-52l22-115H19l5-23h22l19-43h21l-9 43h35l-4 23H73" id="bh"/><g id="e"><use transform="matrix(0.05,0,0,0.05,0,0)" xlink:href="#bh"/><use transform="matrix(0.05,0,0,0.05,5,0)" xlink:href="#aW"/><use transform="matrix(0.05,0,0,0.05,8.95,0)" xlink:href="#bh"/><use transform="matrix(0.05,0,0,0.05,13.949999999999998,0)" xlink:href="#aX"/><use transform="matrix(0.05,0,0,0.05,23.95,0)" xlink:href="#aV"/></g><path fill="#333" d="M194-120c59 52 2 134-86 124-53-6-90-18-98-63l31-7c8 30 29 43 70 43 46 0 84-17 71-62-32-43-135-20-137-98-3-89 178-90 191-16l-30 9c-8-48-127-53-127 5 0 53 81 35 115 65" id="bi"/><path fill="#333" d="M249-183c0 48-29 72-75 77L221 0h-36l-43-103H65L45 0H11l48-248c83 2 190-17 190 65zm-34 3c0-55-74-39-127-41l-18 92c63-1 145 13 145-51" id="bj"/><path fill="#333" d="M52-101C46-14 166-7 216-51l9-45h-74l6-28h105l-18 87C217-12 181 4 130 4 60 4 18-31 18-101c0-106 78-167 188-146 30 6 48 27 59 54l-34 9c-10-26-31-41-67-40-75 1-107 50-112 123" id="bk"/><path fill="#333" d="M17-49c1-102 45-165 103-212h30C92-210 49-145 49-46 49 4 63 43 85 75H54C30 43 18 2 17-49" id="bl"/><path fill="#333" d="M123-251c66 0 92 69 53 113C138-94 73-75 39-27h128l-5 27H-2c17-92 123-93 159-163 14-28-1-64-36-62-29 2-46 17-54 41l-30-6c13-36 37-61 86-61" id="bm"/><path fill="#333" d="M151-85c6-55-69-56-94-29H26l34-134h141l-5 27H84l-20 79c41-34 127-11 121 53C199 13 30 38 8-54l29-8C52 0 159-13 151-85" id="bn"/><path fill="#333" d="M98-137C97-35 54 29-4 75h-31C23 23 67-41 67-140c0-50-15-89-37-121h31c24 32 36 73 37 124" id="bo"/><g id="f"><use transform="matrix(0.05,0,0,0.05,0,0)" xlink:href="#bi"/><use transform="matrix(0.05,0,0,0.05,12,0)" xlink:href="#bg"/><use transform="matrix(0.05,0,0,0.05,22.950000000000003,0)" xlink:href="#bj"/><use transform="matrix(0.05,0,0,0.05,35.900000000000006,0)" xlink:href="#ba"/><use transform="matrix(0.05,0,0,0.05,40.900000000000006,0)" xlink:href="#bf"/><use transform="matrix(0.05,0,0,0.05,53.85,0)" xlink:href="#bk"/><use transform="matrix(0.05,0,0,0.05,67.85000000000001,0)" xlink:href="#bl"/><use transform="matrix(0.05,0,0,0.05,73.80000000000001,0)" xlink:href="#bm"/><use transform="matrix(0.05,0,0,0.05,83.80000000000001,0)" xlink:href="#bn"/><use transform="matrix(0.05,0,0,0.05,93.80000000000001,0)" xlink:href="#bn"/><use transform="matrix(0.05,0,0,0.05,103.80000000000001,0)" xlink:href="#bo"/></g><path fill="#333" d="M133-28C103 26-5 8 13-77c13-62 24-115 90-117 29-1 46 15 56 35l19-102h32L160 0h-30zM45-64c-2 27 10 43 35 43 54-1 69-50 69-103 0-29-15-46-42-46-53-1-58 58-62 106" id="bp"/><path fill="#333" d="M55-144c13 50 104 24 104 88C159 21 15 23 1-39l26-10c6 40 102 42 102-4-13-50-104-23-104-87 0-71 143-71 148-8l-29 4c-5-35-85-37-89 0" id="bq"/><path fill="#333" d="M44-68c0 29 11 47 38 47 30 0 42-19 51-41l28 9C148-21 126 4 82 4 31 4 10-29 12-85c3-77 74-140 146-93 12 8 15 23 18 40l-31 5c-1-22-13-36-36-36-52 0-65 49-65 101" id="br"/><path fill="#333" d="M67-162c32-53 139-36 121 50C175-51 163 2 97 4 68 4 52-11 42-31 38 6 28 39 22 75H-9l50-265h29c-1 10 0 20-3 28zm89 36c0-26-10-43-35-43-54 0-67 50-69 103-1 29 14 45 42 46 53 0 62-58 62-106" id="bs"/><path fill="#333" d="M30-147c31-64 166-65 159 27C183-49 158 1 86 4 9 8 1-88 30-147zM88-20c53 0 68-48 68-100 0-31-11-51-44-50-52 1-68 46-68 97 0 32 13 53 44 53" id="bt"/><path fill="#333" d="M67-158c22-48 132-52 116 29L158 0h-32l25-140c3-38-53-32-70-12C52-117 51-52 38 0H6l36-190h30" id="bu"/><g id="g"><use transform="matrix(0.05,0,0,0.05,0,0)" xlink:href="#bp"/><use transform="matrix(0.05,0,0,0.05,10,0)" xlink:href="#aX"/><use transform="matrix(0.05,0,0,0.05,20,0)" xlink:href="#bq"/><use transform="matrix(0.05,0,0,0.05,29,0)" xlink:href="#br"/><use transform="matrix(0.05,0,0,0.05,38,0)" xlink:href="#aZ"/><use transform="matrix(0.05,0,0,0.05,43.95,0)" xlink:href="#aW"/><use transform="matrix(0.05,0,0,0.05,47.900000000000006,0)" xlink:href="#bs"/><use transform="matrix(0.05,0,0,0.05,57.900000000000006,0)" xlink:href="#bh"/><use transform="matrix(0.05,0,0,0.05,62.900000000000006,0)" xlink:href="#aW"/><use transform="matrix(0.05,0,0,0.05,66.85000000000001,0)" xlink:href="#bt"/><use transform="matrix(0.05,0,0,0.05,76.85000000000001,0)" xlink:href="#bu"/></g><path fill="#333" d="M11 0l48-248h184l-5 28H87l-15 79h140l-5 27H67L50-27h158l-5 27H11" id="bv"/><path fill="#333" d="M176 0l-54-107L30 0H-7l115-131-60-117h35l48 97 83-97h37L146-129 211 0h-35" id="bw"/><g id="h"><use transform="matrix(0.05,0,0,0.05,0,0)" xlink:href="#bg"/><use transform="matrix(0.05,0,0,0.05,10.950000000000001,0)" xlink:href="#bv"/><use transform="matrix(0.05,0,0,0.05,22.950000000000003,0)" xlink:href="#bw"/><use transform="matrix(0.05,0,0,0.05,34.95,0)" xlink:href="#bg"/></g><path fill="#333" d="M87-220l-18 92h140l-5 28H64L45 0H11l48-248h178l-5 28H87" id="bx"/><path fill="#333" d="M-28 44V31h207v13H-28" id="by"/><path fill="#333" d="M125-24c46 0 70-25 89-51l25 16C214-24 183 4 123 4 8 4-5-146 60-208c32-50 158-61 191-5 5 7 9 14 11 22l-32 10c-9-28-33-43-69-43-74 0-108 51-108 125 0 46 24 75 72 75" id="bz"/><path fill="#333" d="M165-48c-4 18 1 34 23 27l-3 20c-29 8-62 0-52-35h-2C116-14 99 4 63 4 30 4 8-16 8-49c0-68 71-67 138-67 10-26 0-56-31-54-26 1-42 9-47 31l-32-5c8-67 160-71 144 15-5 28-9 54-15 81zM42-50c3 52 80 24 89-6 7-12 7-24 11-38-47 1-103-4-100 44" id="bA"/><g id="i"><use transform="matrix(0.05,0,0,0.05,0,0)" xlink:href="#bx"/><use transform="matrix(0.05,0,0,0.05,10.950000000000001,0)" xlink:href="#bd"/><use transform="matrix(0.05,0,0,0.05,22.950000000000003,0)" xlink:href="#by"/><use transform="matrix(0.05,0,0,0.05,32.95,0)" xlink:href="#bz"/><use transform="matrix(0.05,0,0,0.05,45.900000000000006,0)" xlink:href="#bt"/><use transform="matrix(0.05,0,0,0.05,55.900000000000006,0)" xlink:href="#bu"/><use transform="matrix(0.05,0,0,0.05,65.9,0)" xlink:href="#bh"/><use transform="matrix(0.05,0,0,0.05,70.9,0)" xlink:href="#bA"/><use transform="matrix(0.05,0,0,0.05,80.9,0)" xlink:href="#br"/><use transform="matrix(0.05,0,0,0.05,89.9,0)" xlink:href="#bh"/><use transform="matrix(0.05,0,0,0.05,94.9,0)" xlink:href="#by"/><use transform="matrix(0.05,0,0,0.05,104.9,0)" xlink:href="#ba"/><use transform="matrix(0.05,0,0,0.05,109.9,0)" xlink:href="#bb"/></g><g id="j"><use transform="matrix(0.05,0,0,0.05,0,0)" xlink:href="#ba"/><use transform="matrix(0.05,0,0,0.05,5,0)" xlink:href="#bf"/><use transform="matrix(0.05,0,0,0.05,17.950000000000003,0)" xlink:href="#bg"/></g><g id="k"><use transform="matrix(0.05,0,0,0.05,0,0)" xlink:href="#aU"/><use transform="matrix(0.05,0,0,0.05,10,0)" xlink:href="#aU"/><use transform="matrix(0.05,0,0,0.05,20,0)" xlink:href="#aW"/><use transform="matrix(0.05,0,0,0.05,23.95,0)" xlink:href="#bp"/></g><path fill="#333" d="M9 0l6-27h63l36-188-63 39 6-31 66-41h29L110-27h60l-5 27H9" id="bB"/><path fill="#333" d="M39-185c1-48 36-66 85-66 42 0 74 18 74 59 0 38-25 57-56 64 23 7 40 22 40 52 0 55-39 80-94 80C40 4 10-17 9-63c-1-44 31-60 63-71-20-7-33-25-33-51zm31 3c0 26 17 39 46 39 34 0 48-18 49-48 0-25-18-36-45-36-32 0-50 15-50 45zm79 105c0-29-19-41-50-41-37 0-57 20-57 55 0 29 19 42 49 42 36 0 58-19 58-56" id="bC"/><g id="l"><use transform="matrix(0.05,0,0,0.05,0,0)" xlink:href="#bi"/><use transform="matrix(0.05,0,0,0.05,12,0)" xlink:href="#bg"/><use transform="matrix(0.05,0,0,0.05,22.950000000000003,0)" xlink:href="#bj"/><use transform="matrix(0.05,0,0,0.05,35.900000000000006,0)" xlink:href="#ba"/><use transform="matrix(0.05,0,0,0.05,40.900000000000006,0)" xlink:href="#bf"/><use transform="matrix(0.05,0,0,0.05,53.85,0)" xlink:href="#bk"/><use transform="matrix(0.05,0,0,0.05,67.85000000000001,0)" xlink:href="#bl"/><use transform="matrix(0.05,0,0,0.05,73.80000000000001,0)" xlink:href="#bB"/><use transform="matrix(0.05,0,0,0.05,83.80000000000001,0)" xlink:href="#bm"/><use transform="matrix(0.05,0,0,0.05,93.80000000000001,0)" xlink:href="#bC"/><use transform="matrix(0.05,0,0,0.05,103.80000000000001,0)" xlink:href="#bo"/></g><path d="M84 4C-5 8 30-112 23-190h32v120c0 31 7 50 39 49 72-2 45-101 50-169h31l1 190h-30c-1-10 1-25-2-33-11 22-28 36-60 37" id="bD"/><path d="M115-194c55 1 70 41 70 98S169 2 115 4C84 4 66-9 55-30l1 105H24l-1-265h31l2 30c10-21 28-34 59-34zm-8 174c40 0 45-34 45-75s-6-73-45-74c-42 0-51 32-51 76 0 43 10 73 51 73" id="bE"/><path d="M85-194c31 0 48 13 60 33l-1-100h32l1 261h-30c-2-10 0-23-3-31C134-8 116 4 85 4 32 4 16-35 15-94c0-66 23-100 70-100zm9 24c-40 0-46 34-46 75 0 40 6 74 45 74 42 0 51-32 51-76 0-42-9-74-50-73" id="bF"/><path d="M141-36C126-15 110 5 73 4 37 3 15-17 15-53c-1-64 63-63 125-63 3-35-9-54-41-54-24 1-41 7-42 31l-33-3c5-37 33-52 76-52 45 0 72 20 72 64v82c-1 20 7 32 28 27v20c-31 9-61-2-59-35zM48-53c0 20 12 33 32 33 41-3 63-29 60-74-43 2-92-5-92 41" id="bG"/><path d="M59-47c-2 24 18 29 38 22v24C64 9 27 4 27-40v-127H5v-23h24l9-43h21v43h35v23H59v120" id="bH"/><path d="M100-194c63 0 86 42 84 106H49c0 40 14 67 53 68 26 1 43-12 49-29l28 8c-11 28-37 45-77 45C44 4 14-33 15-96c1-61 26-98 85-98zm52 81c6-60-76-77-97-28-3 7-6 17-6 28h103" id="bI"/><path d="M-5 72V49h209v23H-5" id="bJ"/><g id="m"><use transform="matrix(0.05,0,0,0.05,0,0)" xlink:href="#bD"/><use transform="matrix(0.05,0,0,0.05,10,0)" xlink:href="#bE"/><use transform="matrix(0.05,0,0,0.05,20,0)" xlink:href="#bF"/><use transform="matrix(0.05,0,0,0.05,30,0)" xlink:href="#bG"/><use transform="matrix(0.05,0,0,0.05,40,0)" xlink:href="#bH"/><use transform="matrix(0.05,0,0,0.05,45,0)" xlink:href="#bI"/><use transform="matrix(0.05,0,0,0.05,55,0)" xlink:href="#bF"/><use transform="matrix(0.05,0,0,0.05,65,0)" xlink:href="#bJ"/><use transform="matrix(0.05,0,0,0.05,75,0)" xlink:href="#bG"/><use transform="matrix(0.05,0,0,0.05,85,0)" xlink:href="#bH"/></g><path d="M127-220V0H93v-220H8v-28h204v28h-85" id="bK"/><path d="M33 0v-248h34V0H33" id="bL"/><path d="M240 0l2-218c-23 76-54 145-80 218h-23L58-218 59 0H30v-248h44l77 211c21-75 51-140 76-211h43V0h-30" id="bM"/><path d="M30 0v-248h187v28H63v79h144v27H63v87h162V0H30" id="bN"/><g id="n"><use transform="matrix(0.05,0,0,0.05,0,0)" xlink:href="#bK"/><use transform="matrix(0.05,0,0,0.05,10.950000000000001,0)" xlink:href="#bL"/><use transform="matrix(0.05,0,0,0.05,15.950000000000001,0)" xlink:href="#bM"/><use transform="matrix(0.05,0,0,0.05,30.900000000000002,0)" xlink:href="#bN"/></g><path d="M135-143c-3-34-86-38-87 0 15 53 115 12 119 90S17 21 10-45l28-5c4 36 97 45 98 0-10-56-113-15-118-90-4-57 82-63 122-42 12 7 21 19 24 35" id="bO"/><path d="M96-169c-40 0-48 33-48 73s9 75 48 75c24 0 41-14 43-38l32 2c-6 37-31 61-74 61-59 0-76-41-82-99-10-93 101-131 147-64 4 7 5 14 7 22l-32 3c-4-21-16-35-41-35" id="bP"/><g id="o"><use transform="matrix(0.05,0,0,0.05,0,0)" xlink:href="#bO"/><use transform="matrix(0.05,0,0,0.05,9,0)" xlink:href="#bD"/><use transform="matrix(0.05,0,0,0.05,19,0)" xlink:href="#bP"/><use transform="matrix(0.05,0,0,0.05,28,0)" xlink:href="#bP"/><use transform="matrix(0.05,0,0,0.05,37,0)" xlink:href="#bI"/><use transform="matrix(0.05,0,0,0.05,47,0)" xlink:href="#bO"/><use transform="matrix(0.05,0,0,0.05,56,0)" xlink:href="#bO"/><use transform="matrix(0.05,0,0,0.05,65,0)" xlink:href="#bJ"/><use transform="matrix(0.05,0,0,0.05,75,0)" xlink:href="#bG"/><use transform="matrix(0.05,0,0,0.05,85,0)" xlink:href="#bH"/></g><path d="M63-220v92h138v28H63V0H30v-248h175v28H63" id="bQ"/><path d="M194 0L95-120 63-95V0H30v-248h33v124l119-124h40L117-140 236 0h-42" id="bR"/><path d="M212-179c-10-28-35-45-73-45-59 0-87 40-87 99 0 60 29 101 89 101 43 0 62-24 78-52l27 14C228-24 195 4 139 4 59 4 22-46 18-125c-6-104 99-153 187-111 19 9 31 26 39 46" id="bS"/><path d="M100-194c62-1 85 37 85 99 1 63-27 99-86 99S16-35 15-95c0-66 28-99 85-99zM99-20c44 1 53-31 53-75 0-43-8-75-51-75s-53 32-53 75 10 74 51 75" id="bT"/><path d="M117-194c89-4 53 116 60 194h-32v-121c0-31-8-49-39-48C34-167 62-67 57 0H25l-1-190h30c1 10-1 24 2 32 11-22 29-35 61-36" id="bU"/><path d="M24-231v-30h32v30H24zM24 0v-190h32V0H24" id="bV"/><path d="M30-248c118-7 216 8 213 122C240-48 200 0 122 0H30v-248zM63-27c89 8 146-16 146-99s-60-101-146-95v194" id="bW"/><g id="p"><use transform="matrix(0.05,0,0,0.05,0,0)" xlink:href="#bQ"/><use transform="matrix(0.05,0,0,0.05,10.950000000000001,0)" xlink:href="#bR"/><use transform="matrix(0.05,0,0,0.05,22.950000000000003,0)" xlink:href="#bJ"/><use transform="matrix(0.05,0,0,0.05,32.95,0)" xlink:href="#bS"/><use transform="matrix(0.05,0,0,0.05,45.900000000000006,0)" xlink:href="#bT"/><use transform="matrix(0.05,0,0,0.05,55.900000000000006,0)" xlink:href="#bU"/><use transform="matrix(0.05,0,0,0.05,65.9,0)" xlink:href="#bU"/><use transform="matrix(0.05,0,0,0.05,75.9,0)" xlink:href="#bI"/><use transform="matrix(0.05,0,0,0.05,85.9,0)" xlink:href="#bP"/><use transform="matrix(0.05,0,0,0.05,94.9,0)" xlink:href="#bH"/><use transform="matrix(0.05,0,0,0.05,99.9,0)" xlink:href="#bV"/><use transform="matrix(0.05,0,0,0.05,103.85000000000001,0)" xlink:href="#bT"/><use transform="matrix(0.05,0,0,0.05,113.85000000000001,0)" xlink:href="#bU"/><use transform="matrix(0.05,0,0,0.05,123.85000000000001,0)" xlink:href="#bJ"/><use transform="matrix(0.05,0,0,0.05,133.85000000000002,0)" xlink:href="#bL"/><use transform="matrix(0.05,0,0,0.05,138.85000000000002,0)" xlink:href="#bW"/></g><path d="M190 0L58-211 59 0H30v-248h39L202-35l-2-213h31V0h-41" id="bX"/><g id="q"><use transform="matrix(0.05,0,0,0.05,0,0)" xlink:href="#bL"/><use transform="matrix(0.05,0,0,0.05,5,0)" xlink:href="#bX"/><use transform="matrix(0.05,0,0,0.05,17.950000000000003,0)" xlink:href="#bK"/></g><path d="M205 0l-28-72H64L36 0H1l101-248h38L239 0h-34zm-38-99l-47-123c-12 45-31 82-46 123h93" id="bY"/><g id="r"><use transform="matrix(0.05,0,0,0.05,0,0)" xlink:href="#bQ"/><use transform="matrix(0.05,0,0,0.05,10.950000000000001,0)" xlink:href="#bR"/><use transform="matrix(0.05,0,0,0.05,22.950000000000003,0)" xlink:href="#bJ"/><use transform="matrix(0.05,0,0,0.05,32.95,0)" xlink:href="#bY"/><use transform="matrix(0.05,0,0,0.05,44.95,0)" xlink:href="#bP"/><use transform="matrix(0.05,0,0,0.05,53.95,0)" xlink:href="#bH"/><use transform="matrix(0.05,0,0,0.05,58.95,0)" xlink:href="#bV"/><use transform="matrix(0.05,0,0,0.05,62.900000000000006,0)" xlink:href="#bT"/><use transform="matrix(0.05,0,0,0.05,72.9,0)" xlink:href="#bU"/><use transform="matrix(0.05,0,0,0.05,82.9,0)" xlink:href="#bJ"/><use transform="matrix(0.05,0,0,0.05,92.9,0)" xlink:href="#bL"/><use transform="matrix(0.05,0,0,0.05,97.9,0)" xlink:href="#bW"/></g><path d="M210-169c-67 3-38 105-44 169h-31v-121c0-29-5-50-35-48C34-165 62-65 56 0H25l-1-190h30c1 10-1 24 2 32 10-44 99-50 107 0 11-21 27-35 58-36 85-2 47 119 55 194h-31v-121c0-29-5-49-35-48" id="bZ"/><path d="M115-194c53 0 69 39 70 98 0 66-23 100-70 100C84 3 66-7 56-30L54 0H23l1-261h32v101c10-23 28-34 59-34zm-8 174c40 0 45-34 45-75 0-40-5-75-45-74-42 0-51 32-51 76 0 43 10 73 51 73" id="ca"/><path d="M24 0v-261h32V0H24" id="cb"/><g id="s"><use transform="matrix(0.05,0,0,0.05,0,0)" xlink:href="#bH"/><use transform="matrix(0.05,0,0,0.05,5,0)" xlink:href="#bV"/><use transform="matrix(0.05,0,0,0.05,8.95,0)" xlink:href="#bZ"/><use transform="matrix(0.05,0,0,0.05,23.9,0)" xlink:href="#bI"/><use transform="matrix(0.05,0,0,0.05,33.9,0)" xlink:href="#bH"/><use transform="matrix(0.05,0,0,0.05,38.9,0)" xlink:href="#bG"/><use transform="matrix(0.05,0,0,0.05,48.9,0)" xlink:href="#ca"/><use transform="matrix(0.05,0,0,0.05,58.900000000000006,0)" xlink:href="#cb"/><use transform="matrix(0.05,0,0,0.05,62.85,0)" xlink:href="#bI"/><use transform="matrix(0.05,0,0,0.05,72.85,0)" xlink:href="#bJ"/><use transform="matrix(0.05,0,0,0.05,82.85,0)" xlink:href="#bV"/><use transform="matrix(0.05,0,0,0.05,86.8,0)" xlink:href="#bF"/></g><path d="M101-234c-31-9-42 10-38 44h38v23H63V0H32v-167H5v-23h27c-7-52 17-82 69-68v24" id="cc"/><path d="M114-163C36-179 61-72 57 0H25l-1-190h30c1 12-1 29 2 39 6-27 23-49 58-41v29" id="cd"/><g id="t"><use transform="matrix(0.05,0,0,0.05,0,0)" xlink:href="#bQ"/><use transform="matrix(0.05,0,0,0.05,10.950000000000001,0)" xlink:href="#bR"/><use transform="matrix(0.05,0,0,0.05,22.950000000000003,0)" xlink:href="#bJ"/><use transform="matrix(0.05,0,0,0.05,32.95,0)" xlink:href="#cc"/><use transform="matrix(0.05,0,0,0.05,37.95,0)" xlink:href="#bV"/><use transform="matrix(0.05,0,0,0.05,41.900000000000006,0)" xlink:href="#cb"/><use transform="matrix(0.05,0,0,0.05,45.85000000000001,0)" xlink:href="#bI"/><use transform="matrix(0.05,0,0,0.05,55.85,0)" xlink:href="#cc"/><use transform="matrix(0.05,0,0,0.05,60.85,0)" xlink:href="#bT"/><use transform="matrix(0.05,0,0,0.05,70.85000000000001,0)" xlink:href="#cd"/><use transform="matrix(0.05,0,0,0.05,76.80000000000001,0)" xlink:href="#bZ"/><use transform="matrix(0.05,0,0,0.05,91.75000000000001,0)" xlink:href="#bG"/><use transform="matrix(0.05,0,0,0.05,101.75000000000001,0)" xlink:href="#bH"/><use transform="matrix(0.05,0,0,0.05,106.75,0)" xlink:href="#bI"/><use transform="matrix(0.05,0,0,0.05,116.75,0)" xlink:href="#bJ"/><use transform="matrix(0.05,0,0,0.05,126.75,0)" xlink:href="#bL"/><use transform="matrix(0.05,0,0,0.05,131.75,0)" xlink:href="#bW"/></g><g id="u"><use transform="matrix(0.05,0,0,0.05,0,0)" xlink:href="#br"/><use transform="matrix(0.05,0,0,0.05,9,0)" xlink:href="#bt"/><use transform="matrix(0.05,0,0,0.05,19,0)" xlink:href="#bu"/><use transform="matrix(0.05,0,0,0.05,29,0)" xlink:href="#bu"/><use transform="matrix(0.05,0,0,0.05,39,0)" xlink:href="#aX"/><use transform="matrix(0.05,0,0,0.05,49,0)" xlink:href="#br"/><use transform="matrix(0.05,0,0,0.05,58,0)" xlink:href="#bh"/><use transform="matrix(0.05,0,0,0.05,63,0)" xlink:href="#aW"/><use transform="matrix(0.05,0,0,0.05,66.95,0)" xlink:href="#bt"/><use transform="matrix(0.05,0,0,0.05,76.95,0)" xlink:href="#bu"/><use transform="matrix(0.05,0,0,0.05,86.95,0)" xlink:href="#bq"/></g><g id="v"><use transform="matrix(0.05,0,0,0.05,0,0)" xlink:href="#bQ"/><use transform="matrix(0.05,0,0,0.05,10.950000000000001,0)" xlink:href="#bR"/><use transform="matrix(0.05,0,0,0.05,22.950000000000003,0)" xlink:href="#bJ"/><use transform="matrix(0.05,0,0,0.05,32.95,0)" xlink:href="#bE"/><use transform="matrix(0.05,0,0,0.05,42.95,0)" xlink:href="#cd"/><use transform="matrix(0.05,0,0,0.05,48.900000000000006,0)" xlink:href="#bT"/><use transform="matrix(0.05,0,0,0.05,58.900000000000006,0)" xlink:href="#bH"/><use transform="matrix(0.05,0,0,0.05,63.900000000000006,0)" xlink:href="#bT"/><use transform="matrix(0.05,0,0,0.05,73.9,0)" xlink:href="#bP"/><use transform="matrix(0.05,0,0,0.05,82.9,0)" xlink:href="#bT"/><use transform="matrix(0.05,0,0,0.05,92.9,0)" xlink:href="#cb"/><use transform="matrix(0.05,0,0,0.05,96.85000000000001,0)" xlink:href="#bJ"/><use transform="matrix(0.05,0,0,0.05,106.85000000000001,0)" xlink:href="#bL"/><use transform="matrix(0.05,0,0,0.05,111.85000000000001,0)" xlink:href="#bW"/></g><g id="w"><use transform="matrix(0.05,0,0,0.05,0,0)" xlink:href="#bH"/><use transform="matrix(0.05,0,0,0.05,5,0)" xlink:href="#bV"/><use transform="matrix(0.05,0,0,0.05,8.95,0)" xlink:href="#bH"/><use transform="matrix(0.05,0,0,0.05,13.949999999999998,0)" xlink:href="#cb"/><use transform="matrix(0.05,0,0,0.05,17.9,0)" xlink:href="#bI"/></g><path d="M185-189c-5-48-123-54-124 2 14 75 158 14 163 119 3 78-121 87-175 55-17-10-28-26-33-46l33-7c5 56 141 63 141-1 0-78-155-14-162-118-5-82 145-84 179-34 5 7 8 16 11 25" id="ce"/><path d="M233-177c-1 41-23 64-60 70L243 0h-38l-65-103H63V0H30v-248c88 3 205-21 203 71zM63-129c60-2 137 13 137-47 0-61-80-42-137-45v92" id="cf"/><path d="M143 4C61 4 22-44 18-125c-5-107 100-154 193-111 17 8 29 25 37 43l-32 9c-13-25-37-40-76-40-61 0-88 39-88 99 0 61 29 100 91 101 35 0 62-11 79-27v-45h-74v-28h105v86C228-13 192 4 143 4" id="cg"/><g id="x"><use transform="matrix(0.05,0,0,0.05,0,0)" xlink:href="#ce"/><use transform="matrix(0.05,0,0,0.05,12,0)" xlink:href="#bK"/><use transform="matrix(0.05,0,0,0.05,22.950000000000003,0)" xlink:href="#cf"/><use transform="matrix(0.05,0,0,0.05,35.900000000000006,0)" xlink:href="#bL"/><use transform="matrix(0.05,0,0,0.05,40.900000000000006,0)" xlink:href="#bX"/><use transform="matrix(0.05,0,0,0.05,53.85,0)" xlink:href="#cg"/></g><g id="y"><use transform="matrix(0.05,0,0,0.05,0,0)" xlink:href="#aU"/><use transform="matrix(0.05,0,0,0.05,10,0)" xlink:href="#aZ"/><use transform="matrix(0.05,0,0,0.05,15.949999999999998,0)" xlink:href="#aV"/></g><g id="z"><use transform="matrix(0.05,0,0,0.05,0,0)" xlink:href="#bi"/><use transform="matrix(0.05,0,0,0.05,12,0)" xlink:href="#bg"/><use transform="matrix(0.05,0,0,0.05,22.950000000000003,0)" xlink:href="#bj"/><use transform="matrix(0.05,0,0,0.05,35.900000000000006,0)" xlink:href="#ba"/><use transform="matrix(0.05,0,0,0.05,40.900000000000006,0)" xlink:href="#bf"/><use transform="matrix(0.05,0,0,0.05,53.85,0)" xlink:href="#bk"/></g><path d="M106-169C34-169 62-67 57 0H25v-261h32l-1 103c12-21 28-36 61-36 89 0 53 116 60 194h-32v-121c2-32-8-49-39-48" id="ch"/><g id="A"><use transform="matrix(0.05,0,0,0.05,0,0)" xlink:href="#bG"/><use transform="matrix(0.05,0,0,0.05,10,0)" xlink:href="#bD"/><use transform="matrix(0.05,0,0,0.05,20,0)" xlink:href="#bH"/><use transform="matrix(0.05,0,0,0.05,25,0)" xlink:href="#ch"/><use transform="matrix(0.05,0,0,0.05,35,0)" xlink:href="#bJ"/><use transform="matrix(0.05,0,0,0.05,45,0)" xlink:href="#bV"/><use transform="matrix(0.05,0,0,0.05,48.95,0)" xlink:href="#bF"/></g><g id="B"><use transform="matrix(0.05,0,0,0.05,0,0)" xlink:href="#bQ"/><use transform="matrix(0.05,0,0,0.05,10.950000000000001,0)" xlink:href="#bV"/><use transform="matrix(0.05,0,0,0.05,14.9,0)" xlink:href="#bI"/><use transform="matrix(0.05,0,0,0.05,24.900000000000002,0)" xlink:href="#cb"/><use transform="matrix(0.05,0,0,0.05,28.85,0)" xlink:href="#bF"/></g><g id="C"><use transform="matrix(0.05,0,0,0.05,0,0)" xlink:href="#bs"/><use transform="matrix(0.05,0,0,0.05,10,0)" xlink:href="#aZ"/><use transform="matrix(0.05,0,0,0.05,15.949999999999998,0)" xlink:href="#bt"/><use transform="matrix(0.05,0,0,0.05,25.950000000000003,0)" xlink:href="#bh"/><use transform="matrix(0.05,0,0,0.05,30.950000000000003,0)" xlink:href="#bt"/><use transform="matrix(0.05,0,0,0.05,40.95,0)" xlink:href="#br"/><use transform="matrix(0.05,0,0,0.05,49.95,0)" xlink:href="#bt"/><use transform="matrix(0.05,0,0,0.05,59.95,0)" xlink:href="#aV"/></g><g id="D"><use transform="matrix(0.05,0,0,0.05,0,0)" xlink:href="#bL"/><use transform="matrix(0.05,0,0,0.05,5,0)" xlink:href="#bW"/></g><path d="M30-248c87 1 191-15 191 75 0 78-77 80-158 76V0H30v-248zm33 125c57 0 124 11 124-50 0-59-68-47-124-48v98" id="ci"/><path d="M68-38c1 34 0 65-14 84H32c9-13 17-26 17-46H33v-38h35" id="cj"/><g id="E"><use transform="matrix(0.05,0,0,0.05,0,0)" xlink:href="#ci"/><use transform="matrix(0.05,0,0,0.05,12,0)" xlink:href="#bR"/><use transform="matrix(0.05,0,0,0.05,24,0)" xlink:href="#cj"/></g><g id="F"><use transform="matrix(0.05,0,0,0.05,0,0)" xlink:href="#bL"/><use transform="matrix(0.05,0,0,0.05,5,0)" xlink:href="#bX"/><use transform="matrix(0.05,0,0,0.05,17.950000000000003,0)" xlink:href="#bK"/></g><g id="G"><use transform="matrix(0.05,0,0,0.05,0,0)" xlink:href="#bi"/><use transform="matrix(0.05,0,0,0.05,12,0)" xlink:href="#bx"/><use transform="matrix(0.05,0,0,0.05,22.950000000000003,0)" xlink:href="#bg"/><use transform="matrix(0.05,0,0,0.05,33.900000000000006,0)" xlink:href="#bc"/></g><path fill="#333" d="M187 0l-14-72H61L19 0h-37l149-248h38L221 0h-34zm-19-99l-22-123L76-99h92" id="ck"/><g id="H"><use transform="matrix(0.05,0,0,0.05,0,0)" xlink:href="#bj"/><use transform="matrix(0.05,0,0,0.05,12.950000000000001,0)" xlink:href="#bv"/><use transform="matrix(0.05,0,0,0.05,24.950000000000003,0)" xlink:href="#bi"/><use transform="matrix(0.05,0,0,0.05,36.95,0)" xlink:href="#bg"/><use transform="matrix(0.05,0,0,0.05,46.550000000000004,0)" xlink:href="#ck"/><use transform="matrix(0.05,0,0,0.05,58.550000000000004,0)" xlink:href="#bc"/><use transform="matrix(0.05,0,0,0.05,70.55000000000001,0)" xlink:href="#ba"/></g><g id="I"><use transform="matrix(0.05,0,0,0.05,0,0)" xlink:href="#bi"/><use transform="matrix(0.05,0,0,0.05,12,0)" xlink:href="#bz"/><use transform="matrix(0.05,0,0,0.05,24.950000000000003,0)" xlink:href="#bc"/></g><path fill="#333" d="M179 0l23-115H67L45 0H11l48-248h34L72-143h135l21-105h32L212 0h-33" id="cl"/><g id="J"><use transform="matrix(0.05,0,0,0.05,0,0)" xlink:href="#cl"/><use transform="matrix(0.05,0,0,0.05,12.950000000000001,0)" xlink:href="#bg"/><use transform="matrix(0.05,0,0,0.05,23.900000000000002,0)" xlink:href="#bg"/><use transform="matrix(0.05,0,0,0.05,34.85,0)" xlink:href="#bc"/></g><path d="M197 0v-115H63V0H30v-248h33v105h134v-105h34V0h-34" id="cm"/><g id="K"><use transform="matrix(0.05,0,0,0.05,0,0)" xlink:href="#cm"/><use transform="matrix(0.05,0,0,0.05,12.950000000000001,0)" xlink:href="#bK"/><use transform="matrix(0.05,0,0,0.05,23.900000000000002,0)" xlink:href="#bK"/><use transform="matrix(0.05,0,0,0.05,34.85,0)" xlink:href="#ci"/><use transform="matrix(0.05,0,0,0.05,46.85,0)" xlink:href="#ce"/></g><g id="L"><use transform="matrix(0.05,0,0,0.05,0,0)" xlink:href="#bQ"/><use transform="matrix(0.05,0,0,0.05,10.950000000000001,0)" xlink:href="#bK"/><use transform="matrix(0.05,0,0,0.05,21.900000000000002,0)" xlink:href="#ci"/></g><path d="M206 0h-36l-40-164L89 0H53L-1-190h32L70-26l43-164h34l41 164 42-164h31" id="cn"/><g id="M"><use transform="matrix(0.05,0,0,0.05,0,0)" xlink:href="#cn"/><use transform="matrix(0.05,0,0,0.05,12.950000000000001,0)" xlink:href="#bI"/><use transform="matrix(0.05,0,0,0.05,22.950000000000003,0)" xlink:href="#ca"/><use transform="matrix(0.05,0,0,0.05,32.95,0)" xlink:href="#bO"/><use transform="matrix(0.05,0,0,0.05,41.95,0)" xlink:href="#bV"/><use transform="matrix(0.05,0,0,0.05,45.900000000000006,0)" xlink:href="#bH"/><use transform="matrix(0.05,0,0,0.05,50.900000000000006,0)" xlink:href="#bI"/></g><path fill="#a9afb8" d="M24 0v-248h195v40H76v63h132v40H76v65h150V0H24" id="co"/><path fill="#a9afb8" d="M240-174c0 40-23 61-54 70L253 0h-59l-57-94H76V0H24v-248c93 4 217-23 216 74zM76-134c48-2 112 12 112-38 0-48-66-32-112-35v73" id="cp"/><g id="N"><use transform="matrix(0.0728395061728395,0,0,0.0728395061728395,0,0)" xlink:href="#co"/><use transform="matrix(0.0728395061728395,0,0,0.0728395061728395,17.48148148148148,0)" xlink:href="#cp"/></g><path fill="#a9afb8" d="M14-72v-43h91v43H14" id="cq"/><use transform="matrix(0.0728395061728395,0,0,0.0728395061728395,0,0)" xlink:href="#cq" id="O"/><path fill="#a9afb8" d="M24-248c120-7 223 5 221 122C244-46 201 0 124 0H24v-248zM76-40c74 7 117-18 117-86 0-67-45-88-117-82v168" id="cr"/><path fill="#a9afb8" d="M25-224v-37h50v37H25zM25 0v-190h50V0H25" id="cs"/><path fill="#a9afb8" d="M137-138c1-29-70-34-71-4 15 46 118 7 119 86 1 83-164 76-172 9l43-7c4 19 20 25 44 25 33 8 57-30 24-41C81-84 22-81 20-136c-2-80 154-74 161-7" id="ct"/><path fill="#a9afb8" d="M115-3C79 11 28 4 28-45v-112H4v-33h27l15-45h31v45h36v33H77v99c-1 23 16 31 38 25v30" id="cu"/><path fill="#a9afb8" d="M135-150c-39-12-60 13-60 57V0H25l-1-190h47c2 13-1 29 3 40 6-28 27-53 61-41v41" id="cv"/><path fill="#a9afb8" d="M135-194c52 0 70 43 70 98 0 56-19 99-73 100-30 1-46-15-58-35L72 0H24l1-261h50v104c11-23 29-37 60-37zM114-30c31 0 40-27 40-66 0-37-7-63-39-63s-41 28-41 65c0 36 8 64 40 64" id="cw"/><path fill="#a9afb8" d="M85 4C-2 5 27-109 22-190h50c7 57-23 150 33 157 60-5 35-97 40-157h50l1 190h-47c-2-12 1-28-3-38-12 25-28 42-61 42" id="cx"/><path fill="#a9afb8" d="M185-48c-13 30-37 53-82 52C43 2 14-33 14-96s30-98 90-98c62 0 83 45 84 108H66c0 31 8 55 39 56 18 0 30-7 34-22zm-45-69c5-46-57-63-70-21-2 6-4 13-4 21h74" id="cy"/><path fill="#a9afb8" d="M88-194c31-1 46 15 58 34l-1-101h50l1 261h-48c-2-10 0-23-3-31C134-8 116 4 84 4 32 4 16-41 15-95c0-56 19-97 73-99zm17 164c33 0 40-30 41-66 1-37-9-64-41-64s-38 30-39 65c0 43 13 65 39 65" id="cz"/><g id="P"><use transform="matrix(0.0728395061728395,0,0,0.0728395061728395,0,0)" xlink:href="#cr"/><use transform="matrix(0.0728395061728395,0,0,0.0728395061728395,18.86543209876543,0)" xlink:href="#cs"/><use transform="matrix(0.0728395061728395,0,0,0.0728395061728395,26.14938271604938,0)" xlink:href="#ct"/><use transform="matrix(0.0728395061728395,0,0,0.0728395061728395,40.717283950617286,0)" xlink:href="#cu"/><use transform="matrix(0.0728395061728395,0,0,0.0728395061728395,49.38518518518518,0)" xlink:href="#cv"/><use transform="matrix(0.0728395061728395,0,0,0.0728395061728395,59.582716049382704,0)" xlink:href="#cs"/><use transform="matrix(0.0728395061728395,0,0,0.0728395061728395,66.86666666666666,0)" xlink:href="#cw"/><use transform="matrix(0.0728395061728395,0,0,0.0728395061728395,82.81851851851852,0)" xlink:href="#cx"/><use transform="matrix(0.0728395061728395,0,0,0.0728395061728395,98.77037037037037,0)" xlink:href="#cu"/><use transform="matrix(0.0728395061728395,0,0,0.0728395061728395,107.43827160493828,0)" xlink:href="#cy"/><use transform="matrix(0.0728395061728395,0,0,0.0728395061728395,122.00617283950618,0)" xlink:href="#cz"/></g><path fill="#a9afb8" d="M275 0h-61l-44-196L126 0H64L0-248h53L97-49l45-199h58l43 199 44-199h52" id="cA"/><path fill="#a9afb8" d="M110-194c64 0 96 36 96 99 0 64-35 99-97 99-61 0-95-36-95-99 0-62 34-99 96-99zm-1 164c35 0 45-28 45-65 0-40-10-65-43-65-34 0-45 26-45 65 0 36 10 65 43 65" id="cB"/><path fill="#a9afb8" d="M147 0L96-86 75-71V0H25v-261h50v150l67-79h53l-66 74L201 0h-54" id="cC"/><path fill="#a9afb8" d="M135-194c87-1 58 113 63 194h-50c-7-57 23-157-34-157-59 0-34 97-39 157H25l-1-190h47c2 12-1 28 3 38 12-26 28-41 61-42" id="cD"/><path fill="#a9afb8" d="M195-6C206 82 75 100 31 46c-4-6-6-13-8-21l49-6c3 16 16 24 34 25 40 0 42-37 40-79-11 22-30 35-61 35-53 0-70-43-70-97 0-56 18-96 73-97 30 0 46 14 59 34l2-30h47zm-90-29c32 0 41-27 41-63 0-35-9-62-40-62-32 0-39 29-40 63 0 36 9 62 39 62" id="cE"/><g id="Q"><use transform="matrix(0.0728395061728395,0,0,0.0728395061728395,0,0)" xlink:href="#cA"/><use transform="matrix(0.0728395061728395,0,0,0.0728395061728395,24.182716049382716,0)" xlink:href="#cB"/><use transform="matrix(0.0728395061728395,0,0,0.0728395061728395,40.13456790123457,0)" xlink:href="#cv"/><use transform="matrix(0.0728395061728395,0,0,0.0728395061728395,50.3320987654321,0)" xlink:href="#cC"/><use transform="matrix(0.0728395061728395,0,0,0.0728395061728395,64.9,0)" xlink:href="#cs"/><use transform="matrix(0.0728395061728395,0,0,0.0728395061728395,72.18395061728395,0)" xlink:href="#cD"/><use transform="matrix(0.0728395061728395,0,0,0.0728395061728395,88.13580246913581,0)" xlink:href="#cE"/></g><path fill="#a9afb8" d="M67-125c0 53 21 87 73 88 37 1 54-22 65-47l45 17C233-25 199 4 140 4 58 4 20-42 15-125 8-235 124-281 211-232c18 10 29 29 36 50l-46 12c-8-25-30-41-62-41-52 0-71 34-72 86" id="cF"/><path fill="#a9afb8" d="M25 0v-261h50V0H25" id="cG"/><path fill="#a9afb8" d="M133-34C117-15 103 5 69 4 32 3 11-16 11-54c-1-60 55-63 116-61 1-26-3-47-28-47-18 1-26 9-28 27l-52-2c7-38 36-58 82-57s74 22 75 68l1 82c-1 14 12 18 25 15v27c-30 8-71 5-69-32zm-48 3c29 0 43-24 42-57-32 0-66-3-65 30 0 17 8 27 23 27" id="cH"/><g id="R"><use transform="matrix(0.0728395061728395,0,0,0.0728395061728395,0,0)" xlink:href="#cF"/><use transform="matrix(0.0728395061728395,0,0,0.0728395061728395,18.86543209876543,0)" xlink:href="#cG"/><use transform="matrix(0.0728395061728395,0,0,0.0728395061728395,26.14938271604938,0)" xlink:href="#cH"/><use transform="matrix(0.0728395061728395,0,0,0.0728395061728395,40.717283950617286,0)" xlink:href="#ct"/><use transform="matrix(0.0728395061728395,0,0,0.0728395061728395,55.28518518518518,0)" xlink:href="#ct"/></g><path fill="#a9afb8" d="M186 0v-106H76V0H24v-248h52v99h110v-99h50V0h-50" id="cI"/><path fill="#a9afb8" d="M135-194c53 0 70 44 70 98 0 56-19 98-73 100-31 1-45-17-59-34 3 33 2 69 2 105H25l-1-265h48c2 10 0 23 3 31 11-24 29-35 60-35zM114-30c33 0 39-31 40-66 0-38-9-64-40-64-56 0-55 130 0 130" id="cJ"/><g id="S"><use transform="matrix(0.0728395061728395,0,0,0.0728395061728395,0,0)" xlink:href="#cI"/><use transform="matrix(0.0728395061728395,0,0,0.0728395061728395,18.86543209876543,0)" xlink:href="#cy"/><use transform="matrix(0.0728395061728395,0,0,0.0728395061728395,33.43333333333333,0)" xlink:href="#cG"/><use transform="matrix(0.0728395061728395,0,0,0.0728395061728395,40.717283950617286,0)" xlink:href="#cJ"/><use transform="matrix(0.0728395061728395,0,0,0.0728395061728395,56.66913580246913,0)" xlink:href="#cy"/><use transform="matrix(0.0728395061728395,0,0,0.0728395061728395,71.23703703703703,0)" xlink:href="#cv"/></g><path fill="#a9afb8" d="M240 0l2-218c-23 76-54 145-80 218h-23L58-218 59 0H30v-248h44l77 211c21-75 51-140 76-211h43V0h-30" id="cK"/><path fill="#a9afb8" d="M100-194c62-1 85 37 85 99 1 63-27 99-86 99S16-35 15-95c0-66 28-99 85-99zM99-20c44 1 53-31 53-75 0-43-8-75-51-75s-53 32-53 75 10 74 51 75" id="cL"/><path fill="#a9afb8" d="M106-169C34-169 62-67 57 0H25v-261h32l-1 103c12-21 28-36 61-36 89 0 53 116 60 194h-32v-121c2-32-8-49-39-48" id="cM"/><path fill="#a9afb8" d="M141-36C126-15 110 5 73 4 37 3 15-17 15-53c-1-64 63-63 125-63 3-35-9-54-41-54-24 1-41 7-42 31l-33-3c5-37 33-52 76-52 45 0 72 20 72 64v82c-1 20 7 32 28 27v20c-31 9-61-2-59-35zM48-53c0 20 12 33 32 33 41-3 63-29 60-74-43 2-92-5-92 41" id="cN"/><path fill="#a9afb8" d="M210-169c-67 3-38 105-44 169h-31v-121c0-29-5-50-35-48C34-165 62-65 56 0H25l-1-190h30c1 10-1 24 2 32 10-44 99-50 107 0 11-21 27-35 58-36 85-2 47 119 55 194h-31v-121c0-29-5-49-35-48" id="cO"/><path fill="#a9afb8" d="M100-194c63 0 86 42 84 106H49c0 40 14 67 53 68 26 1 43-12 49-29l28 8c-11 28-37 45-77 45C44 4 14-33 15-96c1-61 26-98 85-98zm52 81c6-60-76-77-97-28-3 7-6 17-6 28h103" id="cP"/><path fill="#a9afb8" d="M85-194c31 0 48 13 60 33l-1-100h32l1 261h-30c-2-10 0-23-3-31C134-8 116 4 85 4 32 4 16-35 15-94c0-66 23-100 70-100zm9 24c-40 0-46 34-46 75 0 40 6 74 45 74 42 0 51-32 51-76 0-42-9-74-50-73" id="cQ"/><g id="T"><use transform="matrix(0.04248971193415638,0,0,0.04248971193415638,0,0)" xlink:href="#cK"/><use transform="matrix(0.04248971193415638,0,0,0.04248971193415638,12.704423868312757,0)" xlink:href="#cL"/><use transform="matrix(0.04248971193415638,0,0,0.04248971193415638,21.20236625514403,0)" xlink:href="#cM"/><use transform="matrix(0.04248971193415638,0,0,0.04248971193415638,29.7003086419753,0)" xlink:href="#cN"/><use transform="matrix(0.04248971193415638,0,0,0.04248971193415638,38.19825102880658,0)" xlink:href="#cO"/><use transform="matrix(0.04248971193415638,0,0,0.04248971193415638,50.90267489711934,0)" xlink:href="#cP"/><use transform="matrix(0.04248971193415638,0,0,0.04248971193415638,59.400617283950616,0)" xlink:href="#cQ"/></g><path fill="#a9afb8" d="M30 0v-248h187v28H63v79h144v27H63v87h162V0H30" id="cR"/><path fill="#a9afb8" d="M24 0v-261h32V0H24" id="cS"/><path fill="#a9afb8" d="M179-190L93 31C79 59 56 82 12 73V49c39 6 53-20 64-50L1-190h34L92-34l54-156h33" id="cT"/><g id="U"><use transform="matrix(0.04248971193415638,0,0,0.04248971193415638,0,0)" xlink:href="#cR"/><use transform="matrix(0.04248971193415638,0,0,0.04248971193415638,10.19753086419753,0)" xlink:href="#cS"/><use transform="matrix(0.04248971193415638,0,0,0.04248971193415638,13.554218106995881,0)" xlink:href="#cM"/><use transform="matrix(0.04248971193415638,0,0,0.04248971193415638,22.05216049382716,0)" xlink:href="#cN"/><use transform="matrix(0.04248971193415638,0,0,0.04248971193415638,30.550102880658436,0)" xlink:href="#cO"/><use transform="matrix(0.04248971193415638,0,0,0.04248971193415638,43.254526748971195,0)" xlink:href="#cT"/></g><path fill="#a9afb8" d="M32 76v-337h29V76H32" id="cU"/><use transform="matrix(0.04248971193415638,0,0,0.04248971193415638,0,0)" xlink:href="#cU" id="V"/><path fill="#a9afb8" d="M140-251c81 0 123 46 123 126C263-46 219 4 140 4 59 4 17-45 17-125s42-126 123-126zm0 227c63 0 89-41 89-101s-29-99-89-99c-61 0-89 39-89 99S79-25 140-24" id="cV"/><path fill="#a9afb8" d="M96-169c-40 0-48 33-48 73s9 75 48 75c24 0 41-14 43-38l32 2c-6 37-31 61-74 61-59 0-76-41-82-99-10-93 101-131 147-64 4 7 5 14 7 22l-32 3c-4-21-16-35-41-35" id="cW"/><path fill="#a9afb8" d="M59-47c-2 24 18 29 38 22v24C64 9 27 4 27-40v-127H5v-23h24l9-43h21v43h35v23H59v120" id="cX"/><path fill="#a9afb8" d="M115-194c53 0 69 39 70 98 0 66-23 100-70 100C84 3 66-7 56-30L54 0H23l1-261h32v101c10-23 28-34 59-34zm-8 174c40 0 45-34 45-75 0-40-5-75-45-74-42 0-51 32-51 76 0 43 10 73 51 73" id="cY"/><path fill="#a9afb8" d="M114-163C36-179 61-72 57 0H25l-1-190h30c1 12-1 29 2 39 6-27 23-49 58-41v29" id="cZ"/><g id="W"><use transform="matrix(0.04248971193415638,0,0,0.04248971193415638,0,0)" xlink:href="#cV"/><use transform="matrix(0.04248971193415638,0,0,0.04248971193415638,11.897119341563785,0)" xlink:href="#cW"/><use transform="matrix(0.04248971193415638,0,0,0.04248971193415638,19.545267489711932,0)" xlink:href="#cX"/><use transform="matrix(0.04248971193415638,0,0,0.04248971193415638,23.79423868312757,0)" xlink:href="#cL"/><use transform="matrix(0.04248971193415638,0,0,0.04248971193415638,32.29218106995884,0)" xlink:href="#cY"/><use transform="matrix(0.04248971193415638,0,0,0.04248971193415638,40.79012345679012,0)" xlink:href="#cP"/><use transform="matrix(0.04248971193415638,0,0,0.04248971193415638,49.288065843621396,0)" xlink:href="#cZ"/></g><path fill="#a9afb8" d="M27 0v-27h64v-190l-56 39v-29l58-41h29v221h61V0H27" id="da"/><path fill="#a9afb8" d="M155-56V0h-30v-56H8v-25l114-167h33v167h35v25h-35zm-30-156c-27 46-58 90-88 131h88v-131" id="db"/><path fill="#a9afb8" d="M68-38c1 34 0 65-14 84H32c9-13 17-26 17-46H33v-38h35" id="dc"/><g id="X"><use transform="matrix(0.04248971193415638,0,0,0.04248971193415638,0,0)" xlink:href="#da"/><use transform="matrix(0.04248971193415638,0,0,0.04248971193415638,8.497942386831275,0)" xlink:href="#db"/><use transform="matrix(0.04248971193415638,0,0,0.04248971193415638,16.99588477366255,0)" xlink:href="#dc"/></g><path fill="#a9afb8" d="M101-251c82-7 93 87 43 132L82-64C71-53 59-42 53-27h129V0H18c2-99 128-94 128-182 0-28-16-43-45-43s-46 15-49 41l-32-3c6-41 34-60 81-64" id="dd"/><path fill="#a9afb8" d="M101-251c68 0 85 55 85 127S166 4 100 4C33 4 14-52 14-124c0-73 17-127 87-127zm-1 229c47 0 54-49 54-102s-4-102-53-102c-51 0-55 48-55 102 0 53 5 102 54 102" id="de"/><g id="Y"><use transform="matrix(0.04248971193415638,0,0,0.04248971193415638,0,0)" xlink:href="#dd"/><use transform="matrix(0.04248971193415638,0,0,0.04248971193415638,8.497942386831275,0)" xlink:href="#de"/><use transform="matrix(0.04248971193415638,0,0,0.04248971193415638,16.99588477366255,0)" xlink:href="#dd"/><use transform="matrix(0.04248971193415638,0,0,0.04248971193415638,25.493827160493822,0)" xlink:href="#da"/></g><g id="Z"><use transform="matrix(0.05,0,0,0.05,0,0)" xlink:href="#bA"/><use transform="matrix(0.05,0,0,0.05,10,0)" xlink:href="#br"/><use transform="matrix(0.05,0,0,0.05,19,0)" xlink:href="#bh"/><use transform="matrix(0.05,0,0,0.05,24,0)" xlink:href="#aW"/><use transform="matrix(0.05,0,0,0.05,27.950000000000003,0)" xlink:href="#bt"/><use transform="matrix(0.05,0,0,0.05,37.95,0)" xlink:href="#bu"/><use transform="matrix(0.05,0,0,0.05,47.95,0)" xlink:href="#bq"/></g><g id="aa"><use transform="matrix(0.05,0,0,0.05,0,0)" xlink:href="#bh"/><use transform="matrix(0.05,0,0,0.05,5,0)" xlink:href="#aW"/><use transform="matrix(0.05,0,0,0.05,8.95,0)" xlink:href="#bh"/><use transform="matrix(0.05,0,0,0.05,13.949999999999998,0)" xlink:href="#aV"/><use transform="matrix(0.05,0,0,0.05,17.9,0)" xlink:href="#aX"/></g><path fill="#333" d="M248-111c6-24 9-61-24-58-72 9-57 108-77 169h-31l26-142c3-37-50-30-64-10C52-115 50-51 37 0H6l36-190h30c-1 10-6 24-4 32 13-43 101-52 105 5 13-22 29-41 61-41 90 0 28 129 23 194h-31" id="df"/><g id="ab"><use transform="matrix(0.05,0,0,0.05,0,0)" xlink:href="#br"/><use transform="matrix(0.05,0,0,0.05,9,0)" xlink:href="#bt"/><use transform="matrix(0.05,0,0,0.05,19,0)" xlink:href="#df"/><use transform="matrix(0.05,0,0,0.05,33.95,0)" xlink:href="#df"/><use transform="matrix(0.05,0,0,0.05,48.900000000000006,0)" xlink:href="#bA"/><use transform="matrix(0.05,0,0,0.05,58.900000000000006,0)" xlink:href="#bu"/><use transform="matrix(0.05,0,0,0.05,68.9,0)" xlink:href="#bp"/><use transform="matrix(0.05,0,0,0.05,78.9,0)" xlink:href="#aV"/><use transform="matrix(0.05,0,0,0.05,82.85000000000001,0)" xlink:href="#aW"/><use transform="matrix(0.05,0,0,0.05,86.80000000000001,0)" xlink:href="#bu"/><use transform="matrix(0.05,0,0,0.05,96.80000000000001,0)" xlink:href="#aX"/></g><g id="ac"><use transform="matrix(0.05,0,0,0.05,0,0)" xlink:href="#br"/><use transform="matrix(0.05,0,0,0.05,9,0)" xlink:href="#bt"/><use transform="matrix(0.05,0,0,0.05,19,0)" xlink:href="#bu"/><use transform="matrix(0.05,0,0,0.05,29,0)" xlink:href="#bh"/><use transform="matrix(0.05,0,0,0.05,34,0)" xlink:href="#bA"/><use transform="matrix(0.05,0,0,0.05,44,0)" xlink:href="#br"/><use transform="matrix(0.05,0,0,0.05,53,0)" xlink:href="#bh"/><use transform="matrix(0.05,0,0,0.05,58,0)" xlink:href="#bq"/></g><path fill="#333" d="M198-190L69 30C53 58 25 83-20 72c4-11-1-27 19-22 33-1 43-29 59-52L20-190h32L79-34l84-156h35" id="dg"/><g id="ad"><use transform="matrix(0.05,0,0,0.05,0,0)" xlink:href="#br"/><use transform="matrix(0.05,0,0,0.05,9,0)" xlink:href="#bt"/><use transform="matrix(0.05,0,0,0.05,19,0)" xlink:href="#df"/><use transform="matrix(0.05,0,0,0.05,33.95,0)" xlink:href="#bs"/><use transform="matrix(0.05,0,0,0.05,43.95,0)" xlink:href="#bA"/><use transform="matrix(0.05,0,0,0.05,53.95,0)" xlink:href="#bu"/><use transform="matrix(0.05,0,0,0.05,63.95,0)" xlink:href="#dg"/></g><g id="ae"><use transform="matrix(0.05,0,0,0.05,0,0)" xlink:href="#bA"/><use transform="matrix(0.05,0,0,0.05,10,0)" xlink:href="#bu"/><use transform="matrix(0.05,0,0,0.05,20,0)" xlink:href="#aZ"/><use transform="matrix(0.05,0,0,0.05,25.950000000000003,0)" xlink:href="#aX"/><use transform="matrix(0.05,0,0,0.05,35.95,0)" xlink:href="#bp"/><use transform="matrix(0.05,0,0,0.05,45.95,0)" xlink:href="#aX"/><use transform="matrix(0.05,0,0,0.05,55.95,0)" xlink:href="#by"/><use transform="matrix(0.05,0,0,0.05,65.95,0)" xlink:href="#aW"/><use transform="matrix(0.05,0,0,0.05,69.9,0)" xlink:href="#bp"/></g><path d="M108 0H70L1-190h34L89-25l56-165h34" id="dh"/><g id="af"><use transform="matrix(0.05,0,0,0.05,0,0)" xlink:href="#dh"/><use transform="matrix(0.05,0,0,0.05,9,0)" xlink:href="#bT"/><use transform="matrix(0.05,0,0,0.05,19,0)" xlink:href="#cd"/><use transform="matrix(0.05,0,0,0.05,24.95,0)" xlink:href="#bU"/><use transform="matrix(0.05,0,0,0.05,34.95,0)" xlink:href="#bG"/><use transform="matrix(0.05,0,0,0.05,44.95,0)" xlink:href="#bZ"/><use transform="matrix(0.05,0,0,0.05,59.900000000000006,0)" xlink:href="#bI"/></g><path d="M87 75C49 33 22-17 22-94c0-76 28-126 65-167h31c-38 41-64 92-64 168S80 34 118 75H87" id="di"/><path d="M101-251c82-7 93 87 43 132L82-64C71-53 59-42 53-27h129V0H18c2-99 128-94 128-182 0-28-16-43-45-43s-46 15-49 41l-32-3c6-41 34-60 81-64" id="dj"/><path d="M155-56V0h-30v-56H8v-25l114-167h33v167h35v25h-35zm-30-156c-27 46-58 90-88 131h88v-131" id="dk"/><path d="M33-261c38 41 65 92 65 168S71 34 33 75H2C39 34 66-17 66-93S39-220 2-261h31" id="dl"/><g id="ag"><use transform="matrix(0.05,0,0,0.05,0,0)" xlink:href="#ce"/><use transform="matrix(0.05,0,0,0.05,12,0)" xlink:href="#bK"/><use transform="matrix(0.05,0,0,0.05,22.950000000000003,0)" xlink:href="#cf"/><use transform="matrix(0.05,0,0,0.05,35.900000000000006,0)" xlink:href="#bL"/><use transform="matrix(0.05,0,0,0.05,40.900000000000006,0)" xlink:href="#bX"/><use transform="matrix(0.05,0,0,0.05,53.85,0)" xlink:href="#cg"/><use transform="matrix(0.05,0,0,0.05,67.85000000000001,0)" xlink:href="#di"/><use transform="matrix(0.05,0,0,0.05,73.80000000000001,0)" xlink:href="#dj"/><use transform="matrix(0.05,0,0,0.05,83.80000000000001,0)" xlink:href="#dk"/><use transform="matrix(0.05,0,0,0.05,93.80000000000001,0)" xlink:href="#dl"/></g><g id="ah"><use transform="matrix(0.05,0,0,0.05,0,0)" xlink:href="#bU"/><use transform="matrix(0.05,0,0,0.05,10,0)" xlink:href="#bG"/><use transform="matrix(0.05,0,0,0.05,20,0)" xlink:href="#bZ"/><use transform="matrix(0.05,0,0,0.05,34.95,0)" xlink:href="#bI"/></g><path d="M54-142c48-35 137-8 131 61C196 18 31 33 14-55l32-4c7 23 22 37 52 37 35-1 51-22 54-58 4-55-73-65-99-34H22l8-134h141v27H59" id="dm"/><g id="ai"><use transform="matrix(0.05,0,0,0.05,0,0)" xlink:href="#ce"/><use transform="matrix(0.05,0,0,0.05,12,0)" xlink:href="#bK"/><use transform="matrix(0.05,0,0,0.05,22.950000000000003,0)" xlink:href="#cf"/><use transform="matrix(0.05,0,0,0.05,35.900000000000006,0)" xlink:href="#bL"/><use transform="matrix(0.05,0,0,0.05,40.900000000000006,0)" xlink:href="#bX"/><use transform="matrix(0.05,0,0,0.05,53.85,0)" xlink:href="#cg"/><use transform="matrix(0.05,0,0,0.05,67.85000000000001,0)" xlink:href="#di"/><use transform="matrix(0.05,0,0,0.05,73.80000000000001,0)" xlink:href="#dj"/><use transform="matrix(0.05,0,0,0.05,83.80000000000001,0)" xlink:href="#dm"/><use transform="matrix(0.05,0,0,0.05,93.80000000000001,0)" xlink:href="#dm"/><use transform="matrix(0.05,0,0,0.05,103.80000000000001,0)" xlink:href="#dl"/></g><g id="aj"><use transform="matrix(0.05,0,0,0.05,0,0)" xlink:href="#bH"/><use transform="matrix(0.05,0,0,0.05,5,0)" xlink:href="#bI"/><use transform="matrix(0.05,0,0,0.05,15,0)" xlink:href="#cb"/><use transform="matrix(0.05,0,0,0.05,18.95,0)" xlink:href="#bI"/><use transform="matrix(0.05,0,0,0.05,28.950000000000003,0)" xlink:href="#cc"/><use transform="matrix(0.05,0,0,0.05,33.95,0)" xlink:href="#bT"/><use transform="matrix(0.05,0,0,0.05,43.95,0)" xlink:href="#bU"/><use transform="matrix(0.05,0,0,0.05,53.95,0)" xlink:href="#bI"/></g><path d="M110-160c48 1 74 30 74 79 0 53-28 85-80 85-65 0-83-55-86-122-5-90 50-162 133-122 14 7 22 21 27 39l-31 6c-5-40-67-38-82-6-9 19-15 44-15 74 11-20 30-34 60-33zm-7 138c34 0 49-23 49-58s-16-56-50-56c-29 0-50 16-49 49 1 36 15 65 50 65" id="dn"/><g id="ak"><use transform="matrix(0.05,0,0,0.05,0,0)" xlink:href="#ce"/><use transform="matrix(0.05,0,0,0.05,12,0)" xlink:href="#bK"/><use transform="matrix(0.05,0,0,0.05,22.950000000000003,0)" xlink:href="#cf"/><use transform="matrix(0.05,0,0,0.05,35.900000000000006,0)" xlink:href="#bL"/><use transform="matrix(0.05,0,0,0.05,40.900000000000006,0)" xlink:href="#bX"/><use transform="matrix(0.05,0,0,0.05,53.85,0)" xlink:href="#cg"/><use transform="matrix(0.05,0,0,0.05,67.85000000000001,0)" xlink:href="#di"/><use transform="matrix(0.05,0,0,0.05,73.80000000000001,0)" xlink:href="#dn"/><use transform="matrix(0.05,0,0,0.05,83.80000000000001,0)" xlink:href="#dk"/><use transform="matrix(0.05,0,0,0.05,93.80000000000001,0)" xlink:href="#dl"/></g><g id="al"><use transform="matrix(0.05,0,0,0.05,0,0)" xlink:href="#bZ"/><use transform="matrix(0.05,0,0,0.05,14.950000000000001,0)" xlink:href="#bT"/><use transform="matrix(0.05,0,0,0.05,24.950000000000003,0)" xlink:href="#ca"/><use transform="matrix(0.05,0,0,0.05,34.95,0)" xlink:href="#bV"/><use transform="matrix(0.05,0,0,0.05,38.900000000000006,0)" xlink:href="#cb"/><use transform="matrix(0.05,0,0,0.05,42.85000000000001,0)" xlink:href="#bI"/></g><g id="am"><use transform="matrix(0.05,0,0,0.05,0,0)" xlink:href="#bI"/><use transform="matrix(0.05,0,0,0.05,10,0)" xlink:href="#bZ"/><use transform="matrix(0.05,0,0,0.05,24.950000000000003,0)" xlink:href="#bG"/><use transform="matrix(0.05,0,0,0.05,34.95,0)" xlink:href="#bV"/><use transform="matrix(0.05,0,0,0.05,38.900000000000006,0)" xlink:href="#cb"/></g><path d="M143 0L79-87 56-68V0H24v-261h32v163l83-92h37l-77 82L181 0h-38" id="do"/><path d="M177-190C167-65 218 103 67 71c-23-6-38-20-44-43l32-5c15 47 100 32 89-28v-30C133-14 115 1 83 1 29 1 15-40 15-95c0-56 16-97 71-98 29-1 48 16 59 35 1-10 0-23 2-32h30zM94-22c36 0 50-32 50-73 0-42-14-75-50-75-39 0-46 34-46 75s6 73 46 73" id="dp"/><g id="an"><use transform="matrix(0.05,0,0,0.05,0,0)" xlink:href="#bG"/><use transform="matrix(0.05,0,0,0.05,10,0)" xlink:href="#bU"/><use transform="matrix(0.05,0,0,0.05,20,0)" xlink:href="#bZ"/><use transform="matrix(0.05,0,0,0.05,34.95,0)" xlink:href="#bI"/><use transform="matrix(0.05,0,0,0.05,44.95,0)" xlink:href="#cd"/><use transform="matrix(0.05,0,0,0.05,50.900000000000006,0)" xlink:href="#do"/><use transform="matrix(0.05,0,0,0.05,59.900000000000006,0)" xlink:href="#bD"/><use transform="matrix(0.05,0,0,0.05,69.9,0)" xlink:href="#bU"/><use transform="matrix(0.05,0,0,0.05,79.9,0)" xlink:href="#dp"/></g><path d="M195 0l-74-108L45 0H8l94-129-87-119h37l69 98 67-98h37l-84 118L233 0h-38" id="dq"/><g id="ao"><use transform="matrix(0.05,0,0,0.05,0,0)" xlink:href="#bK"/><use transform="matrix(0.05,0,0,0.05,10.950000000000001,0)" xlink:href="#bN"/><use transform="matrix(0.05,0,0,0.05,22.950000000000003,0)" xlink:href="#dq"/><use transform="matrix(0.05,0,0,0.05,34.95,0)" xlink:href="#bK"/></g><path fill="#333" d="M67-158c15-20 31-36 64-36 94 0 33 127 27 194h-32l25-140c3-38-53-32-70-12C52-117 51-51 37 0H6l51-261h31" id="dr"/><g id="ap"><use transform="matrix(0.05,0,0,0.05,0,0)" xlink:href="#bA"/><use transform="matrix(0.05,0,0,0.05,10,0)" xlink:href="#aU"/><use transform="matrix(0.05,0,0,0.05,20,0)" xlink:href="#bh"/><use transform="matrix(0.05,0,0,0.05,25,0)" xlink:href="#dr"/><use transform="matrix(0.05,0,0,0.05,35,0)" xlink:href="#bq"/></g><g id="aq"><use transform="matrix(0.05,0,0,0.05,0,0)" xlink:href="#bU"/><use transform="matrix(0.05,0,0,0.05,10,0)" xlink:href="#bT"/><use transform="matrix(0.05,0,0,0.05,20,0)" xlink:href="#bJ"/><use transform="matrix(0.05,0,0,0.05,30,0)" xlink:href="#bG"/><use transform="matrix(0.05,0,0,0.05,40,0)" xlink:href="#bD"/><use transform="matrix(0.05,0,0,0.05,50,0)" xlink:href="#bH"/><use transform="matrix(0.05,0,0,0.05,55,0)" xlink:href="#ch"/></g><path d="M179-190L93 31C79 59 56 82 12 73V49c39 6 53-20 64-50L1-190h34L92-34l54-156h33" id="ds"/><g id="ar"><use transform="matrix(0.05,0,0,0.05,0,0)" xlink:href="#bK"/><use transform="matrix(0.05,0,0,0.05,9.950000000000001,0)" xlink:href="#ds"/><use transform="matrix(0.05,0,0,0.05,18.950000000000003,0)" xlink:href="#bE"/><use transform="matrix(0.05,0,0,0.05,28.950000000000003,0)" xlink:href="#bI"/></g><path fill="#333" d="M103-194c29 0 47 14 56 36 2-11 5-23 8-32h30L160-5C157 61 82 97 21 62 9 55 4 45 1 30l28-7c7 42 83 31 92-3 4-16 9-38 13-55-13 20-29 36-62 36-40 0-60-25-60-64 0-71 23-131 91-131zm4 24c-53 0-58 54-61 104-2 27 10 44 36 44 49 0 65-50 67-102 1-29-15-46-42-46" id="dt"/><g id="as"><use transform="matrix(0.05,0,0,0.05,0,0)" xlink:href="#aV"/><use transform="matrix(0.05,0,0,0.05,3.95,0)" xlink:href="#bt"/><use transform="matrix(0.05,0,0,0.05,13.949999999999998,0)" xlink:href="#dt"/><use transform="matrix(0.05,0,0,0.05,23.95,0)" xlink:href="#aW"/><use transform="matrix(0.05,0,0,0.05,27.899999999999995,0)" xlink:href="#bu"/><use transform="matrix(0.05,0,0,0.05,37.9,0)" xlink:href="#by"/><use transform="matrix(0.05,0,0,0.05,47.9,0)" xlink:href="#bA"/><use transform="matrix(0.05,0,0,0.05,57.900000000000006,0)" xlink:href="#aU"/><use transform="matrix(0.05,0,0,0.05,67.9,0)" xlink:href="#bh"/><use transform="matrix(0.05,0,0,0.05,72.9,0)" xlink:href="#dr"/></g><g id="at"><use transform="matrix(0.05,0,0,0.05,0,0)" xlink:href="#bH"/><use transform="matrix(0.05,0,0,0.05,5,0)" xlink:href="#bT"/><use transform="matrix(0.05,0,0,0.05,15,0)" xlink:href="#do"/><use transform="matrix(0.05,0,0,0.05,24,0)" xlink:href="#bI"/><use transform="matrix(0.05,0,0,0.05,34,0)" xlink:href="#bU"/><use transform="matrix(0.05,0,0,0.05,44,0)" xlink:href="#bJ"/><use transform="matrix(0.05,0,0,0.05,54,0)" xlink:href="#bG"/><use transform="matrix(0.05,0,0,0.05,64,0)" xlink:href="#bD"/><use transform="matrix(0.05,0,0,0.05,74,0)" xlink:href="#bH"/><use transform="matrix(0.05,0,0,0.05,79,0)" xlink:href="#ch"/></g><g id="au"><use transform="matrix(0.05,0,0,0.05,0,0)" xlink:href="#do"/><use transform="matrix(0.05,0,0,0.05,9,0)" xlink:href="#bI"/><use transform="matrix(0.05,0,0,0.05,19,0)" xlink:href="#ds"/><use transform="matrix(0.05,0,0,0.05,28,0)" xlink:href="#bJ"/><use transform="matrix(0.05,0,0,0.05,38,0)" xlink:href="#bG"/><use transform="matrix(0.05,0,0,0.05,48,0)" xlink:href="#bD"/><use transform="matrix(0.05,0,0,0.05,58,0)" xlink:href="#bH"/><use transform="matrix(0.05,0,0,0.05,63,0)" xlink:href="#ch"/></g><g id="av"><use transform="matrix(0.05,0,0,0.05,0,0)" xlink:href="#aY"/><use transform="matrix(0.05,0,0,0.05,5,0)" xlink:href="#aW"/><use transform="matrix(0.05,0,0,0.05,8.95,0)" xlink:href="#aV"/><use transform="matrix(0.05,0,0,0.05,12.899999999999999,0)" xlink:href="#aX"/><use transform="matrix(0.05,0,0,0.05,22.9,0)" xlink:href="#bx"/><use transform="matrix(0.05,0,0,0.05,33.85,0)" xlink:href="#bt"/><use transform="matrix(0.05,0,0,0.05,43.85,0)" xlink:href="#aZ"/><use transform="matrix(0.05,0,0,0.05,49.800000000000004,0)" xlink:href="#df"/><use transform="matrix(0.05,0,0,0.05,64.75,0)" xlink:href="#bA"/><use transform="matrix(0.05,0,0,0.05,74.75,0)" xlink:href="#bh"/></g><path fill="#333" d="M89 0H52L20-190h33L74-25l89-165h34" id="du"/><g id="aw"><use transform="matrix(0.05,0,0,0.05,0,0)" xlink:href="#br"/><use transform="matrix(0.05,0,0,0.05,9,0)" xlink:href="#bq"/><use transform="matrix(0.05,0,0,0.05,18,0)" xlink:href="#du"/></g><g id="ax"><use transform="matrix(0.05,0,0,0.05,0,0)" xlink:href="#bg"/><use transform="matrix(0.05,0,0,0.05,9.600000000000001,0)" xlink:href="#dg"/><use transform="matrix(0.05,0,0,0.05,18.6,0)" xlink:href="#bs"/><use transform="matrix(0.05,0,0,0.05,28.6,0)" xlink:href="#aX"/></g><path fill="#333" d="M124 0L87-78 21 0h-35l86-98-46-92h33l34 74 61-74h37l-83 92 50 98h-34" id="dv"/><g id="ay"><use transform="matrix(0.05,0,0,0.05,0,0)" xlink:href="#bh"/><use transform="matrix(0.05,0,0,0.05,5,0)" xlink:href="#dv"/><use transform="matrix(0.05,0,0,0.05,14,0)" xlink:href="#bh"/></g><g id="az"><use transform="matrix(0.05,0,0,0.05,0,0)" xlink:href="#dv"/><use transform="matrix(0.05,0,0,0.05,9,0)" xlink:href="#df"/><use transform="matrix(0.05,0,0,0.05,23.950000000000003,0)" xlink:href="#aV"/></g><g id="aA"><use transform="matrix(0.05,0,0,0.05,0,0)" xlink:href="#dv"/><use transform="matrix(0.05,0,0,0.05,9,0)" xlink:href="#aV"/><use transform="matrix(0.05,0,0,0.05,12.949999999999998,0)" xlink:href="#bq"/><use transform="matrix(0.05,0,0,0.05,21.95,0)" xlink:href="#dv"/></g><g id="aB"><use transform="matrix(0.05,0,0,0.05,0,0)" xlink:href="#bT"/><use transform="matrix(0.05,0,0,0.05,10,0)" xlink:href="#bF"/><use transform="matrix(0.05,0,0,0.05,20,0)" xlink:href="#bH"/></g><path d="M9 0v-24l116-142H16v-24h144v24L44-24h123V0H9" id="dw"/><g id="aC"><use transform="matrix(0.05,0,0,0.05,0,0)" xlink:href="#dw"/><use transform="matrix(0.05,0,0,0.05,9,0)" xlink:href="#bV"/><use transform="matrix(0.05,0,0,0.05,12.949999999999998,0)" xlink:href="#bE"/></g><g id="aD"><use transform="matrix(0.05,0,0,0.05,0,0)" xlink:href="#cn"/><use transform="matrix(0.05,0,0,0.05,12.950000000000001,0)" xlink:href="#bG"/><use transform="matrix(0.05,0,0,0.05,22.950000000000003,0)" xlink:href="#cd"/></g><g id="aE"><use transform="matrix(0.05,0,0,0.05,0,0)" xlink:href="#bA"/><use transform="matrix(0.05,0,0,0.05,10,0)" xlink:href="#bu"/><use transform="matrix(0.05,0,0,0.05,20,0)" xlink:href="#aZ"/><use transform="matrix(0.05,0,0,0.05,25.950000000000003,0)" xlink:href="#aX"/><use transform="matrix(0.05,0,0,0.05,35.95,0)" xlink:href="#bp"/><use transform="matrix(0.05,0,0,0.05,45.95,0)" xlink:href="#aX"/></g><g id="aF"><use transform="matrix(0.05,0,0,0.05,0,0)" xlink:href="#bc"/><use transform="matrix(0.05,0,0,0.05,12,0)" xlink:href="#bd"/></g><g id="aG"><use transform="matrix(0.05,0,0,0.05,0,0)" xlink:href="#ba"/><use transform="matrix(0.05,0,0,0.05,5,0)" xlink:href="#bb"/></g><g id="aH"><use transform="matrix(0.05,0,0,0.05,0,0)" xlink:href="#ba"/><use transform="matrix(0.05,0,0,0.05,5,0)" xlink:href="#bf"/><use transform="matrix(0.05,0,0,0.05,17.950000000000003,0)" xlink:href="#bg"/></g><path fill="#333" d="M148-71c0-36-31-44-71-41l5-28c46 3 81-6 81-50 0-23-15-35-39-35-30 0-49 17-56 41l-32-3c12-39 42-63 90-64 43 0 69 19 71 60 1 43-30 58-65 66 27 5 49 22 49 53 0 85-133 99-164 35-4-7-7-15-9-22l29-9c8 25 25 45 58 45 34 1 53-17 53-48" id="dx"/><g id="aI"><use transform="matrix(0.05,0,0,0.05,0,0)" xlink:href="#bi"/><use transform="matrix(0.05,0,0,0.05,12,0)" xlink:href="#bg"/><use transform="matrix(0.05,0,0,0.05,22.950000000000003,0)" xlink:href="#bj"/><use transform="matrix(0.05,0,0,0.05,35.900000000000006,0)" xlink:href="#ba"/><use transform="matrix(0.05,0,0,0.05,40.900000000000006,0)" xlink:href="#bf"/><use transform="matrix(0.05,0,0,0.05,53.85,0)" xlink:href="#bk"/><use transform="matrix(0.05,0,0,0.05,67.85000000000001,0)" xlink:href="#bl"/><use transform="matrix(0.05,0,0,0.05,73.80000000000001,0)" xlink:href="#dx"/><use transform="matrix(0.05,0,0,0.05,83.80000000000001,0)" xlink:href="#bm"/><use transform="matrix(0.05,0,0,0.05,93.80000000000001,0)" xlink:href="#bo"/></g><path fill="#333" d="M30 0v-248h187v28H63v79h144v27H63v87h162V0H30" id="dy"/><path fill="#333" d="M117-194c89-4 53 116 60 194h-32v-121c0-31-8-49-39-48C34-167 62-67 57 0H25l-1-190h30c1 10-1 24 2 32 11-22 29-35 61-36" id="dz"/><path fill="#333" d="M59-47c-2 24 18 29 38 22v24C64 9 27 4 27-40v-127H5v-23h24l9-43h21v43h35v23H59v120" id="dA"/><path fill="#333" d="M24-231v-30h32v30H24zM24 0v-190h32V0H24" id="dB"/><path fill="#333" d="M179-190L93 31C79 59 56 82 12 73V49c39 6 53-20 64-50L1-190h34L92-34l54-156h33" id="dC"/><g id="aJ"><use transform="matrix(0.05,0,0,0.05,0,0)" xlink:href="#dy"/><use transform="matrix(0.05,0,0,0.05,12,0)" xlink:href="#dz"/><use transform="matrix(0.05,0,0,0.05,22,0)" xlink:href="#dA"/><use transform="matrix(0.05,0,0,0.05,27,0)" xlink:href="#dB"/><use transform="matrix(0.05,0,0,0.05,30.950000000000003,0)" xlink:href="#dA"/><use transform="matrix(0.05,0,0,0.05,35.95,0)" xlink:href="#dC"/></g><path fill="#333" d="M30-248c87 1 191-15 191 75 0 78-77 80-158 76V0H30v-248zm33 125c57 0 124 11 124-50 0-59-68-47-124-48v98" id="dD"/><path fill="#333" d="M194 0L95-120 63-95V0H30v-248h33v124l119-124h40L117-140 236 0h-42" id="dE"/><g id="aK"><use transform="matrix(0.05,0,0,0.05,0,0)" xlink:href="#dD"/><use transform="matrix(0.05,0,0,0.05,12,0)" xlink:href="#dE"/></g><path fill="#333" d="M33 0v-248h34V0H33" id="dF"/><path fill="#333" d="M30-248c118-7 216 8 213 122C240-48 200 0 122 0H30v-248zM63-27c89 8 146-16 146-99s-60-101-146-95v194" id="dG"/><g id="aL"><use transform="matrix(0.05,0,0,0.05,0,0)" xlink:href="#dF"/><use transform="matrix(0.05,0,0,0.05,5,0)" xlink:href="#dG"/></g><path fill="#333" d="M190 0L58-211 59 0H30v-248h39L202-35l-2-213h31V0h-41" id="dH"/><path fill="#333" d="M127-220V0H93v-220H8v-28h204v28h-85" id="dI"/><g id="aM"><use transform="matrix(0.05,0,0,0.05,0,0)" xlink:href="#dF"/><use transform="matrix(0.05,0,0,0.05,5,0)" xlink:href="#dH"/><use transform="matrix(0.05,0,0,0.05,17.950000000000003,0)" xlink:href="#dI"/></g><path fill="#333" d="M24 0v-261h32V0H24" id="dJ"/><path fill="#333" d="M100-194c63 0 86 42 84 106H49c0 40 14 67 53 68 26 1 43-12 49-29l28 8c-11 28-37 45-77 45C44 4 14-33 15-96c1-61 26-98 85-98zm52 81c6-60-76-77-97-28-3 7-6 17-6 28h103" id="dK"/><g id="aN"><use transform="matrix(0.05,0,0,0.05,0,0)" xlink:href="#dA"/><use transform="matrix(0.05,0,0,0.05,5,0)" xlink:href="#dB"/><use transform="matrix(0.05,0,0,0.05,8.95,0)" xlink:href="#dJ"/><use transform="matrix(0.05,0,0,0.05,12.899999999999999,0)" xlink:href="#dK"/></g><g id="aO"><use transform="matrix(0.05,0,0,0.05,0,0)" xlink:href="#bR"/><use transform="matrix(0.05,0,0,0.05,12,0)" xlink:href="#bI"/><use transform="matrix(0.05,0,0,0.05,22,0)" xlink:href="#ds"/></g><g id="aP"><use transform="matrix(0.05,0,0,0.05,0,0)" xlink:href="#bx"/><use transform="matrix(0.05,0,0,0.05,10.950000000000001,0)" xlink:href="#bd"/><use transform="matrix(0.05,0,0,0.05,22.950000000000003,0)" xlink:href="#by"/><use transform="matrix(0.05,0,0,0.05,32.95,0)" xlink:href="#bA"/><use transform="matrix(0.05,0,0,0.05,42.95,0)" xlink:href="#by"/><use transform="matrix(0.05,0,0,0.05,52.95,0)" xlink:href="#aW"/><use transform="matrix(0.05,0,0,0.05,56.900000000000006,0)" xlink:href="#bp"/></g><g id="aQ"><use transform="matrix(0.05,0,0,0.05,0,0)" xlink:href="#dE"/><use transform="matrix(0.05,0,0,0.05,12,0)" xlink:href="#dK"/><use transform="matrix(0.05,0,0,0.05,22,0)" xlink:href="#dC"/></g><path fill="#333" d="M63-220v92h138v28H63V0H30v-248h175v28H63" id="dL"/><path fill="#333" d="M85-194c31 0 48 13 60 33l-1-100h32l1 261h-30c-2-10 0-23-3-31C134-8 116 4 85 4 32 4 16-35 15-94c0-66 23-100 70-100zm9 24c-40 0-46 34-46 75 0 40 6 74 45 74 42 0 51-32 51-76 0-42-9-74-50-73" id="dM"/><g id="aR"><use transform="matrix(0.05,0,0,0.05,0,0)" xlink:href="#dL"/><use transform="matrix(0.05,0,0,0.05,10.950000000000001,0)" xlink:href="#dB"/><use transform="matrix(0.05,0,0,0.05,14.9,0)" xlink:href="#dK"/><use transform="matrix(0.05,0,0,0.05,24.900000000000002,0)" xlink:href="#dJ"/><use transform="matrix(0.05,0,0,0.05,28.85,0)" xlink:href="#dM"/></g><path fill="#333" d="M115-194c55 1 70 41 70 98S169 2 115 4C84 4 66-9 55-30l1 105H24l-1-265h31l2 30c10-21 28-34 59-34zm-8 174c40 0 45-34 45-75s-6-73-45-74c-42 0-51 32-51 76 0 43 10 73 51 73" id="dN"/><g id="aS"><use transform="matrix(0.05,0,0,0.05,0,0)" xlink:href="#dI"/><use transform="matrix(0.05,0,0,0.05,9.950000000000001,0)" xlink:href="#dC"/><use transform="matrix(0.05,0,0,0.05,18.950000000000003,0)" xlink:href="#dN"/><use transform="matrix(0.05,0,0,0.05,28.950000000000003,0)" xlink:href="#dK"/></g></defs></g></svg>